<?xml version="1.0" encoding="utf-8"?>
<!-- Generator: Adobe Illustrator 25.4.1, SVG Export Plug-In . SVG Version: 6.00 Build 0)  -->
<svg version="1.1" id="Layer_1" xmlns="http://www.w3.org/2000/svg" xmlns:xlink="http://www.w3.org/1999/xlink" x="0px" y="0px"
	 viewBox="0 0 960 540" style="enable-background:new 0 0 960 540;" xml:space="preserve">
<style type="text/css">
	.st0{enable-background:new    ;}
	.st1{fill-rule:evenodd;clip-rule:evenodd;}
	.st2{fill-rule:evenodd;clip-rule:evenodd;fill:#318FC7;}
	.st3{display:none;}
	.st4{display:inline;fill:none;stroke:#000000;stroke-width:0.25;stroke-miterlimit:10;}
	.st5{display:inline;}
	.st6{font-family:'Ubuntu-Bold';}
	.st7{font-size:300px;}
</style>
<g class="st0">
	<path d="M548.4,320.4c0,12.4-1.8,23.8-5.4,34c-3.6,10.3-8.8,19.1-15.6,26.4s-15,13-24.5,17s-20.2,6-32,6c-11.6,0-22.2-2-31.6-6
		c-9.5-4-17.7-9.6-24.4-17c-6.8-7.3-12.1-16.1-15.9-26.4s-5.7-21.6-5.7-34s2-23.7,5.9-33.9c3.9-10.2,9.3-18.9,16.2-26.1
		c6.9-7.2,15.1-12.8,24.6-16.8s19.8-6,31-6c11.4,0,21.8,2,31.3,6s17.6,9.6,24.5,16.8c6.8,7.2,12.1,15.9,15.9,26.1
		C546.5,296.7,548.4,308,548.4,320.4z M502.8,320.4c0-13.8-2.8-24.6-8.2-32.5c-5.6-8-13.4-11.9-23.6-11.9s-18.1,4-23.7,11.8
		c-5.6,7.9-8.4,18.8-8.4,32.5s2.8,24.8,8.4,32.9s13.5,12.1,23.7,12.1s18-4,23.6-12.1C500,345.1,502.8,334.2,502.8,320.4z"/>
	<path d="M581.4,202.5l44.7-7.2v46.5h53.7V279h-53.7v55.5c0,9.4,1.6,16.9,4.9,22.5c3.3,5.6,9.9,8.4,20,8.4c4.8,0,9.8-0.5,14.9-1.3
		c5.1-0.9,9.8-2.1,13.9-3.8l6.3,34.8c-5.4,2.2-11.4,4.1-18,5.7s-14.7,2.4-24.3,2.4c-12.2,0-22.3-1.6-30.3-4.9s-14.4-7.9-19.2-13.8
		s-8.2-13-10-21.4c-1.9-8.4-2.9-17.7-2.9-27.9L581.4,202.5L581.4,202.5z"/>
	<path d="M766.8,237.6c13.2,0,24.2,1.5,33,4.5s15.8,7.3,21.1,12.9c5.3,5.6,9,12.4,11.2,20.4s3.3,16.9,3.3,26.7v93
		c-6.4,1.4-15.3,3.1-26.7,5s-25.2,2.8-41.4,2.8c-10.2,0-19.5-0.9-27.8-2.7c-8.3-1.8-15.5-4.7-21.5-8.8c-6-4.1-10.6-9.5-13.8-16
		c-3.2-6.6-4.8-14.7-4.8-24.3c0-9.2,1.8-17,5.5-23.4s8.6-11.5,14.9-15.3c6.2-3.8,13.3-6.5,21.3-8.2s16.3-2.5,24.9-2.5
		c5.8,0,11,0.3,15.5,0.8s8.1,1.2,11,1.9V300c0-7.6-2.3-13.7-6.9-18.3c-4.6-4.6-12.6-6.9-24-6.9c-7.6,0-15.1,0.6-22.5,1.6
		c-7.4,1.1-13.8,2.7-19.2,4.7l-5.7-36c2.6-0.8,5.8-1.7,9.8-2.5c3.9-0.9,8.1-1.7,12.8-2.4c4.6-0.7,9.5-1.3,14.5-1.8
		C756.4,237.8,761.6,237.6,766.8,237.6z M770.4,368.4c4.4,0,8.6-0.1,12.6-0.3c4-0.2,7.2-0.5,9.6-0.9v-33.9c-1.8-0.4-4.5-0.8-8.1-1.2
		c-3.6-0.4-6.9-0.6-9.9-0.6c-4.2,0-8.2,0.3-11.8,0.8c-3.7,0.5-7,1.5-9.8,2.8c-2.8,1.4-5,3.3-6.6,5.7c-1.6,2.4-2.4,5.4-2.4,9
		c0,7,2.3,11.8,7,14.5S762.2,368.4,770.4,368.4z"/>
</g>
<rect x="298.1" y="242.1" class="st1" width="61" height="157.5"/>
<rect x="298.1" y="145.5" class="st2" width="61" height="61"/>
<rect x="105" y="338.6" class="st2" width="61" height="61"/>
<rect x="201.6" y="242.1" class="st2" width="61" height="61"/>
<g id="Guides" class="st3">
	<rect x="105" y="145.5" class="st4" width="254.1" height="254.1"/>
	<text transform="matrix(1 0 0 1 293.2659 399.5501)" class="st5 st6 st7">i</text>
	<text transform="matrix(1 0 0 1 373.7618 399.5502)" class="st5 st6 st7">ota</text>
</g>
</svg>
