<?xml version="1.0" encoding="utf-8"?>
<!-- Generator: Adobe Illustrator 22.1.0, SVG Export Plug-In . SVG Version: 6.00 Build 0)  -->
<svg version="1.1" id="Layer_1" xmlns="http://www.w3.org/2000/svg" xmlns:xlink="http://www.w3.org/1999/xlink" x="0px" y="0px"
	 viewBox="0 0 167.81 25.01777" style="enable-background:new 0 0 167.81 25.01777;" xml:space="preserve">
<style type="text/css">
	.st0{fill:#231F20;}
</style>
<title>NTID_text_hor_k1</title>
<polygon class="st0" points="73.04,0.04778 73.23,0.04778 73.42,0.04778 73.42,12.53277 73.42,25.01777 73.23,25.01777 
	73.04,25.01777 73.04,12.53277 "/>
<path class="st0" d="M36.19,2.71777c0.215-0.56,0.6775-0.84,1.23-0.98c0.5525-0.14,1.195-0.14,1.77-0.14h0.105H39.4v-0.79v-0.79
	c0,0-1.11,0.025-2.39,0.05c-1.28,0.025-2.73,0.05-3.41,0.05s-2.07-0.025-3.29-0.05s-2.27-0.05-2.27-0.05v0.79v0.79h0.105h0.105
	c0.57,0,1.21,0,1.7625,0.14s1.0175,0.42,1.2375,0.98c0.15472,0.79853,0.26312,1.60465,0.32489,2.41433
	S31.6518,6.75502,31.62,7.56778v4.955v4.955c0.03345,0.81257,0.01997,1.6257-0.04013,2.43538
	c-0.0601,0.80968-0.16682,1.61589-0.31987,2.41462c-0.215,0.565-0.6775,0.8475-1.23,0.98875
	c-0.5525,0.14125-1.195,0.14125-1.77,0.14125h-0.105H28.05v0.78v0.78c0,0,0.8925-0.04,2.035-0.08c1.1425-0.04,2.535-0.08,3.535-0.08
	c1.13,0,2.5775,0.0375,3.7425,0.075c1.165,0.0375,2.0475,0.075,2.0475,0.075v-0.775v-0.775h-0.105H39.2
	c-0.57,0-1.21,0-1.7625-0.14125C36.885,23.17528,36.42,22.89278,36.2,22.32778c-0.14883-0.79925-0.2526-1.60558-0.31102-2.41518
	c-0.05843-0.8096-0.07151-1.62248-0.03897-2.43482v-4.955v-4.955c-0.03418-0.81215-0.02276-1.62493,0.03399-2.43454
	S36.04284,3.51721,36.19,2.71777z"/>
<path class="st0" d="M42.76,0.06778v3.235v3.235h0.77h0.77v-0.1v-0.1c0.07-2.105,0.5075-3.2025,1.3825-3.77375
	S47.87,1.94778,49.69,1.94778h0.185h0.185c0.45,0,0.8875,0,1.255,0.04s0.665,0.12,0.835,0.28
	c0.05824,0.06377,0.10185,0.13824,0.1291,0.21829s0.03813,0.16566,0.0309,0.25171v8.5v8.5c0,1.265-0.0875,2.1575-0.62,2.7525
	c-0.5325,0.595-1.51,0.8925-3.29,0.9675h-0.1h-0.1v0.78v0.78c0,0,1.0375-0.0375,2.375-0.075c1.3375-0.0375,2.975-0.075,4.175-0.075
	c0.915,0,2.395,0.0375,3.64625,0.075c1.25125,0.0375,2.27375,0.075,2.27375,0.075v-0.765v-0.765h-0.105H60.46
	c-1.775-0.075-2.7525-0.3725-3.28625-0.9675c-0.53375-0.595-0.62375-1.4875-0.62375-2.7525v-8.5v-8.5
	c-0.00251-0.07885,0.01166-0.1564,0.04062-0.22796c0.02896-0.07156,0.07272-0.13714,0.12938-0.19204
	c0.205-0.205,0.59-0.3025,1.03625-0.3475s0.95375-0.0375,1.40375-0.0325h0.255h0.255c1.775,0,2.9475,0.25,3.7025,0.925
	s1.0925,1.775,1.1975,3.475v0.095v0.095h0.775H66.12v-3.245v-3.245c0,0-2.25,0.015-4.835,0.03s-5.505,0.03-6.845,0.03
	s-4.26-0.015-6.845-0.03C45.01,0.08278,42.76,0.06778,42.76,0.06778z"/>
<path class="st0" d="M24.62,23.45778c-0.69632-0.01604-1.36859-0.19538-1.96815-0.51229
	c-0.59955-0.31691-1.12639-0.77139-1.53185-1.33772l-3.7-4.23l-3.7-4.23c1.94-0.255,3.5075-1.0225,4.59-2.19
	c1.0825-1.1675,1.68-2.735,1.68-4.59c0.08089-1.05781-0.14886-2.09101-0.63021-2.9894S18.1455,1.71637,17.22,1.19777
	c-0.92317-0.44234-1.89458-0.76496-2.89074-0.96318S12.31218-0.03746,11.29,0.01777c-0.39,0-1.0525,0.02-1.875,0.04
	c-0.8225,0.02-1.805,0.04-2.835,0.04s-2.675-0.02-4.0625-0.04S0,0.01777,0,0.01777v0.785v0.785h0.155H0.31
	c0.59,0,1.215,0,1.73625,0.14s0.93875,0.42,1.11375,0.98c0.13162,0.75752,0.22423,1.52079,0.27764,2.2868
	S3.50523,6.52932,3.48,7.29778v5.09v5.09c0.01121,0.66743,0.00513,1.33492-0.01821,2.00181
	C3.43844,20.14648,3.39784,20.81276,3.34,21.47777c-0.01905,0.14541-0.04361,0.28999-0.07363,0.43343
	S3.20087,22.19693,3.16,22.33777c-0.18,0.56-0.6275,0.84-1.175,0.98c-0.5475,0.14-1.195,0.14-1.775,0.14H0.105H0v0.78v0.78
	c0,0,0.865-0.04,2.01875-0.08c1.15375-0.04,2.59625-0.08,3.75125-0.08c1,0,2.36,0.0375,3.47,0.07625s1.97,0.07875,1.97,0.08375
	v-0.78v-0.78h-0.155H10.9c-0.58,0-1.1975,0-1.7175-0.14c-0.52-0.14-0.9425-0.42-1.1325-0.98
	c-0.04325-0.14024-0.07994-0.28233-0.10997-0.42582S7.88662,21.62358,7.87,21.47777
	c-0.0575-0.61993-0.09877-1.24116-0.12377-1.86304C7.72122,18.99286,7.71247,18.37032,7.72,17.74777v-2.08v-2.08
	c0.69,0,1.065,0.04,1.35625,0.185c0.29125,0.145,0.49875,0.395,0.85375,0.815c0.065,0.08,0.135,0.165,0.21125,0.255
	s0.15875,0.185,0.24875,0.285l3.075,3.815l3.075,3.815l0.905,1.13l0.905,1.13c0,0,0.5-0.0225,1.11875-0.045
	c0.61875-0.0225,1.35625-0.045,1.83125-0.045c0.7,0,1.5675,0.0225,2.26,0.045c0.6925,0.0225,1.21,0.045,1.21,0.045v-0.765v-0.765
	l-0.075-0.015L24.62,23.45778z M7.72,11.88778v-4.53v-4.53c0-0.18,0-0.395,0.03625-0.5825
	C7.7925,2.05778,7.865,1.89778,8.01,1.82778c0.38627-0.02482,0.77313-0.03723,1.16-0.03723s0.77373,0.01241,1.16,0.03723
	c1.58,0,2.83,0.4625,3.685,1.3275s1.315,2.1325,1.315,3.7425c0,1.175-0.1575,2.1-0.48625,2.81625S14.015,10.93778,13.33,11.27778
	s-2.0875,0.4925-3.31875,0.56C8.78,11.90528,7.72,11.88778,7.72,11.88778z"/>
<path class="st0" d="M36.19,2.71777c0.215-0.56,0.6775-0.84,1.23-0.98c0.5525-0.14,1.195-0.14,1.77-0.14h0.105H39.4v-0.79v-0.79
	c0,0-1.11,0.025-2.39,0.05c-1.28,0.025-2.73,0.05-3.41,0.05s-2.07-0.025-3.29-0.05s-2.27-0.05-2.27-0.05v0.79v0.79h0.105h0.105
	c0.57,0,1.21,0,1.7625,0.14s1.0175,0.42,1.2375,0.98c0.15472,0.79853,0.26312,1.60465,0.32489,2.41433
	S31.6518,6.75502,31.62,7.56778v4.955v4.955c0.03345,0.81257,0.01997,1.6257-0.04013,2.43538
	c-0.0601,0.80968-0.16682,1.61589-0.31987,2.41462c-0.215,0.565-0.6775,0.8475-1.23,0.98875
	c-0.5525,0.14125-1.195,0.14125-1.77,0.14125h-0.105H28.05v0.78v0.78c0,0,0.8925-0.04,2.035-0.08c1.1425-0.04,2.535-0.08,3.535-0.08
	c1.13,0,2.5775,0.0375,3.7425,0.075c1.165,0.0375,2.0475,0.075,2.0475,0.075v-0.775v-0.775h-0.105H39.2
	c-0.57,0-1.21,0-1.7625-0.14125C36.885,23.17528,36.42,22.89278,36.2,22.32778c-0.14883-0.79925-0.2526-1.60558-0.31102-2.41518
	c-0.05843-0.8096-0.07151-1.62248-0.03897-2.43482v-4.955v-4.955c-0.03418-0.81215-0.02276-1.62493,0.03399-2.43454
	S36.04284,3.51721,36.19,2.71777z"/>
<path class="st0" d="M42.76,0.06778v3.235v3.235h0.77h0.77v-0.1v-0.1c0.07-2.105,0.5075-3.2025,1.3825-3.77375
	S47.87,1.94778,49.69,1.94778h0.185h0.185c0.45,0,0.8875,0,1.255,0.04s0.665,0.12,0.835,0.28
	c0.05824,0.06377,0.10185,0.13824,0.1291,0.21829s0.03813,0.16566,0.0309,0.25171v8.5v8.5c0,1.265-0.0875,2.1575-0.62,2.7525
	c-0.5325,0.595-1.51,0.8925-3.29,0.9675h-0.1h-0.1v0.78v0.78c0,0,1.0375-0.0375,2.375-0.075c1.3375-0.0375,2.975-0.075,4.175-0.075
	c0.915,0,2.395,0.0375,3.64625,0.075c1.25125,0.0375,2.27375,0.075,2.27375,0.075v-0.765v-0.765h-0.105H60.46
	c-1.775-0.075-2.7525-0.3725-3.28625-0.9675c-0.53375-0.595-0.62375-1.4875-0.62375-2.7525v-8.5v-8.5
	c-0.00251-0.07885,0.01166-0.1564,0.04062-0.22796c0.02896-0.07156,0.07272-0.13714,0.12938-0.19204
	c0.205-0.205,0.59-0.3025,1.03625-0.3475s0.95375-0.0375,1.40375-0.0325h0.255h0.255c1.775,0,2.9475,0.25,3.7025,0.925
	s1.0925,1.775,1.1975,3.475v0.095v0.095h0.775H66.12v-3.245v-3.245c0,0-2.25,0.015-4.835,0.03s-5.505,0.03-6.845,0.03
	s-4.26-0.015-6.845-0.03C45.01,0.08278,42.76,0.06778,42.76,0.06778z"/>
<path class="st0" d="M24.62,23.45778c-0.69632-0.01604-1.36859-0.19538-1.96815-0.51229
	c-0.59955-0.31691-1.12639-0.77139-1.53185-1.33772l-3.7-4.23l-3.7-4.23c1.94-0.255,3.5075-1.0225,4.59-2.19
	c1.0825-1.1675,1.68-2.735,1.68-4.59c0.08089-1.05781-0.14886-2.09101-0.63021-2.9894S18.1455,1.71637,17.22,1.19777
	c-0.92317-0.44234-1.89458-0.76496-2.89074-0.96318S12.31218-0.03746,11.29,0.01777c-0.39,0-1.0525,0.02-1.875,0.04
	c-0.8225,0.02-1.805,0.04-2.835,0.04s-2.675-0.02-4.0625-0.04S0,0.01777,0,0.01777v0.785v0.785h0.155H0.31
	c0.59,0,1.215,0,1.73625,0.14s0.93875,0.42,1.11375,0.98c0.13162,0.75752,0.22423,1.52079,0.27764,2.2868
	S3.50523,6.52932,3.48,7.29778v5.09v5.09c0.01121,0.66743,0.00513,1.33492-0.01821,2.00181
	C3.43844,20.14648,3.39784,20.81276,3.34,21.47777c-0.01905,0.14541-0.04361,0.28999-0.07363,0.43343
	S3.20087,22.19693,3.16,22.33777c-0.18,0.56-0.6275,0.84-1.175,0.98c-0.5475,0.14-1.195,0.14-1.775,0.14H0.105H0v0.78v0.78
	c0,0,0.865-0.04,2.01875-0.08c1.15375-0.04,2.59625-0.08,3.75125-0.08c1,0,2.36,0.0375,3.47,0.07625s1.97,0.07875,1.97,0.08375
	v-0.78v-0.78h-0.155H10.9c-0.58,0-1.1975,0-1.7175-0.14c-0.52-0.14-0.9425-0.42-1.1325-0.98
	c-0.04325-0.14024-0.07994-0.28233-0.10997-0.42582S7.88662,21.62358,7.87,21.47777
	c-0.0575-0.61993-0.09877-1.24116-0.12377-1.86304C7.72122,18.99286,7.71247,18.37032,7.72,17.74777v-2.08v-2.08
	c0.69,0,1.065,0.04,1.35625,0.185c0.29125,0.145,0.49875,0.395,0.85375,0.815c0.065,0.08,0.135,0.165,0.21125,0.255
	s0.15875,0.185,0.24875,0.285l3.075,3.815l3.075,3.815l0.905,1.13l0.905,1.13c0,0,0.5-0.0225,1.11875-0.045
	c0.61875-0.0225,1.35625-0.045,1.83125-0.045c0.7,0,1.5675,0.0225,2.26,0.045c0.6925,0.0225,1.21,0.045,1.21,0.045v-0.765v-0.765
	l-0.075-0.015L24.62,23.45778z M7.72,11.88778v-4.53v-4.53c0-0.18,0-0.395,0.03625-0.5825
	C7.7925,2.05778,7.865,1.89778,8.01,1.82778c0.38627-0.02482,0.77313-0.03723,1.16-0.03723s0.77373,0.01241,1.16,0.03723
	c1.58,0,2.83,0.4625,3.685,1.3275s1.315,2.1325,1.315,3.7425c0,1.175-0.1575,2.1-0.48625,2.81625S14.015,10.93778,13.33,11.27778
	s-2.0875,0.4925-3.31875,0.56C8.78,11.90528,7.72,11.88778,7.72,11.88778z"/>
<path class="st0" d="M80.34,4.01778h0.735h0.735l1.18999,2l1.19,2c0.115,0.195,0.24,0.445,0.33625,0.64625
	C84.6225,8.86528,84.69,9.01777,84.69,9.01777l0,0l0,0c0,0,0-0.185,0-0.4325c0-0.2475,0-0.5575,0-0.8075v-1.88v-1.88h0.715h0.715
	v3.575v3.575h-0.7h-0.7l-1.22-2l-1.22-2c-0.11501-0.19-0.24251-0.44-0.34126-0.6425C81.84,6.32277,81.77,6.16777,81.77,6.16777l0,0
	l0,0c0,0,0,0.1875,0,0.4375s0,0.5625,0,0.8125v1.845v1.845h-0.715H80.34v-3.545V4.01778z"/>
<path class="st0" d="M90.16,10.58777L90.16,10.58777L90.16,10.58777c-0.16531,0.24954-0.39439,0.44121-0.65634,0.56092
	c-0.26196,0.1197-0.5568,0.16743-0.85366,0.12908c-0.525,0-0.9725-0.1375-1.28876-0.4025
	c-0.31625-0.265-0.50124-0.6575-0.50124-1.1675s0.23-0.8825,0.60249-1.1475c0.37251-0.265,0.8875-0.4225,1.4575-0.5025
	c0.425-0.06,0.73499-0.1075,0.93874-0.18875C90.06249,7.78778,90.16,7.67278,90.16,7.47778s-0.0725-0.3475-0.21626-0.45125
	C89.8,6.92278,89.58499,6.86778,89.3,6.86778c-0.285,0-0.535,0.0575-0.71375,0.17625C88.40749,7.16278,88.3,7.34278,88.3,7.58778
	h-0.61H87.08c0-0.45,0.1775-0.8725,0.5425-1.1825c0.365-0.31,0.9175-0.5075,1.6675-0.5075s1.29,0.1725,1.6425,0.495
	c0.3525,0.3225,0.5175,0.795,0.5175,1.395v1.305v1.305c0,0.195,0.015,0.35,0.045,0.4675c0.03,0.1175,0.075,0.1975,0.135,0.2425
	v0.025v0.025H90.975H90.32c-0.04683-0.08815-0.08389-0.18083-0.1107-0.27638C90.18247,10.78584,90.16589,10.68742,90.16,10.58777
	 M90.16,9.34777v-0.385v-0.385c-0.15895,0.07283-0.32256,0.13448-0.48962,0.1846C89.5033,8.81249,89.33278,8.85108,89.16,8.87777
	c-0.355,0.08-0.62,0.16-0.79625,0.28c-0.17625,0.12-0.26375,0.28-0.26375,0.52s0.07999,0.4025,0.21999,0.505
	c0.14001,0.1025,0.34,0.145,0.58001,0.145c0.39,0,0.6925-0.12,0.8975-0.305c0.20499-0.185,0.3125-0.435,0.3125-0.695"/>
<path class="st0" d="M91.91,6.01778h0.355h0.355v-0.8v-0.8h0.665h0.665v0.8v0.8H94.39h0.44v0.45v0.45h-0.44H93.95v1.36v1.36
	c-0.01786,0.12297,0.01582,0.24154,0.0847,0.33384s0.17298,0.1583,0.29596,0.17616c0.02144,0.00311,0.04305,0.00467,0.06467,0.00467
	s0.04323-0.00156,0.06467-0.00467h0.2h0.2v0.5v0.5c0,0-0.0775,0-0.2225,0c-0.145,0-0.3575,0-0.62749,0
	c-0.27,0-0.61751-0.06-0.89751-0.24125c-0.28-0.18125-0.4925-0.48375-0.4925-0.96875v-1.5v-1.5h-0.355H91.91v-0.46V6.01778z"/>
<path class="st0" d="M95.53001,4.01778h0.68h0.68v0.61v0.61h-0.68h-0.68v-0.61V4.01778z M95.53001,6.01778h0.68h0.68v2.565v2.565
	h-0.68h-0.68v-2.565V6.01778z"/>
<path class="st0" d="M97.52,8.59777c0-0.74006,0.29996-1.41006,0.78495-1.89505S99.45994,5.91777,100.2,5.91777
	c0.74006,0,1.41006,0.29997,1.89504,0.78495S102.88,7.85771,102.88,8.59777s-0.29997,1.41006-0.78496,1.89505
	c-0.48499,0.48498-1.15498,0.78495-1.89504,0.78495c-0.74007,0-1.41006-0.29997-1.89505-0.78495
	C97.81997,10.00784,97.52,9.33784,97.52,8.59777 M101.52,8.59777c0-0.5-0.1175-0.92-0.33875-1.215s-0.54625-0.465-0.96125-0.465
	s-0.74001,0.17-0.96126,0.465c-0.22124,0.295-0.33875,0.715-0.33875,1.215s0.115,0.9175,0.335,1.21
	c0.22,0.2925,0.545,0.46,0.965,0.46c0.42,0,0.745-0.1675,0.965-0.46C101.405,9.51528,101.52,9.09777,101.52,8.59777"/>
<path class="st0" d="M104.84,6.72778L104.84,6.72778L104.84,6.72778c0.15489-0.27107,0.37892-0.48762,0.64222-0.63312
	c0.26329-0.1455,0.56584-0.21997,0.87778-0.20688c0.48877-0.00176,0.93198,0.19476,1.25343,0.51392
	c0.32146,0.31915,0.52116,0.76094,0.52292,1.24971c0.00009,0.0261-0.00039,0.05219-0.00145,0.07826
	s-0.00269,0.05211-0.00491,0.07812v1.675v1.675h-0.68h-0.68v-1.57v-1.57c0.02518-0.23337-0.04662-0.45485-0.18304-0.62428
	c-0.13644-0.16943-0.3375-0.28682-0.57086-0.312c-0.0226-0.00244-0.04528-0.00397-0.06798-0.00459
	c-0.0227-0.00062-0.04543-0.00033-0.06812,0.00087c-0.29494,0.01771-0.55479,0.15329-0.73647,0.35818
	c-0.18168,0.20489-0.28519,0.47909-0.26748,0.77403c0.00047,0.00798,0.00105,0.01595,0.0017,0.02392s0.0014,0.01592,0.00224,0.02387
	v1.455v1.455h-0.68h-0.68v-2.575v-2.575h0.665h0.665l-0.005,0.355L104.84,6.72778z"/>
<path class="st0" d="M112.07,10.58777L112.07,10.58777L112.07,10.58777c-0.16531,0.24954-0.39439,0.44121-0.65634,0.56092
	c-0.26196,0.1197-0.5568,0.16743-0.85366,0.12908c-0.5,0-0.9475-0.1375-1.27-0.4025c-0.3225-0.265-0.52-0.6575-0.52-1.1675
	s0.23-0.8825,0.60249-1.1475c0.37251-0.265,0.8875-0.4225,1.4575-0.5025c0.425-0.06,0.73499-0.1075,0.93874-0.18875
	c0.20375-0.08125,0.30125-0.19625,0.30125-0.39125s-0.0725-0.3475-0.21626-0.45125
	c-0.14375-0.10375-0.35875-0.15875-0.64375-0.15875c-0.285,0-0.5225,0.0575-0.695,0.17625
	c-0.1725,0.11875-0.28,0.29875-0.305,0.54375h-0.605h-0.605c0-0.45,0.1775-0.8725,0.5425-1.1825
	c0.365-0.31,0.9175-0.5075,1.6675-0.5075s1.29,0.1725,1.6425,0.495c0.3525,0.3225,0.5175,0.795,0.5175,1.395v1.305v1.305
	c0,0.195,0.015,0.35,0.045,0.4675c0.03,0.1175,0.075,0.1975,0.135,0.2425v0.025v0.025h-0.655h-0.655
	c-0.04683-0.08815-0.08389-0.18083-0.1107-0.27638c-0.02682-0.09555-0.04341-0.19397-0.0493-0.29362 M112.07999,9.34777v-0.385
	v-0.385c-0.15105,0.07068-0.30643,0.13124-0.4651,0.18135s-0.32066,0.08977-0.48489,0.11865c-0.355,0.08-0.62,0.16-0.79625,0.28
	c-0.17625,0.12-0.26375,0.28-0.26375,0.52s0.07999,0.4025,0.21999,0.505c0.14001,0.1025,0.34,0.145,0.58001,0.145
	c0.39,0,0.6925-0.12,0.8975-0.305c0.20499-0.185,0.3125-0.435,0.3125-0.695"/>
<polygon class="st0" points="114.24001,4.00777 114.92001,4.00777 115.60001,4.00777 115.60001,7.58277 115.60001,11.15777 
	114.92001,11.15777 114.24001,11.15777 114.24001,7.58277 "/>
<polygon class="st0" points="117.92001,4.00777 120.79501,4.00777 123.67001,4.00777 123.67001,4.61777 123.67001,5.22778 
	122.595,5.22778 121.52,5.22778 121.52,8.19277 121.52,11.15777 120.795,11.15777 120.07,11.15777 120.07,8.19277 120.07,5.22778 
	118.995,5.22778 117.92001,5.22778 117.92001,4.61777 "/>
<path class="st0" d="M122.89,8.58777c-0.04419-0.70001,0.19955-1.35166,0.62933-1.83935s1.04561-0.81143,1.74562-0.85561
	c0.02581-0.00163,0.05164-0.00286,0.07748-0.0037c0.02585-0.00084,0.05171-0.00129,0.07758-0.00134
	c0.825,0,1.4575,0.315,1.88374,0.85875C127.73,7.29028,127.95,8.06277,127.95,8.97777h-1.86h-1.86
	c-0.0001,0.35346,0.14308,0.6735,0.37466,0.9052c0.23157,0.2317,0.55153,0.37505,0.90499,0.37515
	c0.00506,0,0.01012-0.00003,0.01517-0.00008c0.00506-0.00006,0.01012-0.00015,0.01517-0.00027
	c0.21752,0.01526,0.42744-0.04084,0.60303-0.15146s0.31683-0.27575,0.39697-0.47854h0.67h0.67
	c-0.12646,0.52785-0.43599,0.97012-0.84914,1.2693c-0.41315,0.29917-0.92992,0.45525-1.47087,0.4107
	c-0.70053,0.03496-1.34892-0.21733-1.83091-0.65349c-0.48199-0.43616-0.79758-1.0562-0.83255-1.75673
	c-0.00258-0.05162-0.00358-0.10329-0.003-0.15494c0.00057-0.05165,0.00272-0.10329,0.00645-0.15483 M124.25999,8.03777h1.14h1.14
	c0.00554-0.29818-0.11031-0.57038-0.30209-0.76942c-0.19178-0.19904-0.45949-0.32491-0.75768-0.33045
	c-0.00504-0.00009-0.01008-0.00015-0.01511-0.00017c-0.00504-0.00002-0.01008-0.00001-0.01511,0.00004
	c-0.31449-0.01399-0.60488,0.10082-0.82015,0.29774c-0.21526,0.19693-0.3554,0.47597-0.36938,0.79047
	c-0.00009,0.00197-0.00018,0.00393-0.00025,0.0059C124.26012,8.03384,124.26006,8.03581,124.25999,8.03777"/>
<path class="st0" d="M128.33,8.59777c-0.04977-0.69686,0.18762-1.34793,0.61168-1.83723s1.03477-0.81682,1.73163-0.8666
	c0.03606-0.00258,0.07216-0.00438,0.10829-0.00541c0.03612-0.00103,0.07227-0.00128,0.1084-0.00076
	c0.57611-0.04502,1.11974,0.13868,1.53876,0.47678c0.41904,0.3381,0.71349,0.83061,0.79124,1.40322h-0.66499H131.89
	c-0.03714-0.22994-0.15569-0.42893-0.32318-0.56969c-0.16748-0.14076-0.38391-0.22329-0.61682-0.22031
	c-0.41,0-0.72,0.1575-0.92751,0.43875c-0.20749,0.28125-0.3125,0.68625-0.3125,1.18125s0.0975,0.9,0.29875,1.18125
	s0.50626,0.43875,0.92125,0.43875c0.25264,0.00214,0.48622-0.09011,0.66486-0.24552s0.30231-0.37398,0.33514-0.62448h0.655h0.655
	c-0.0367,0.5898-0.30898,1.1089-0.71954,1.47136s-0.95941,0.56831-1.54922,0.5316c-0.00687-0.00043-0.01375-0.00089-0.02061-0.00138
	c-0.00687-0.00049-0.01375-0.00102-0.02061-0.00158c-0.70091,0.02628-1.34612-0.23403-1.82266-0.67614
	c-0.47655-0.44211-0.78444-1.06601-0.81071-1.76692c-0.0016-0.04282-0.00212-0.08568-0.00157-0.12852
	c0.00056-0.04284,0.00221-0.08566,0.00494-0.12843"/>
<path class="st0" d="M135.22,6.69778L135.22,6.69778L135.22,6.69778c0.15384-0.26289,0.37421-0.47231,0.63217-0.61255
	c0.25798-0.14024,0.55356-0.21129,0.85783-0.19745c0.48877-0.00176,0.93199,0.19476,1.25345,0.51391
	c0.32146,0.31915,0.52116,0.76094,0.52292,1.2497c0.00009,0.0261-0.00038,0.05219-0.00145,0.07826
	c-0.00105,0.02607-0.0027,0.05212-0.00491,0.07812v1.675v1.675h-0.67999h-0.68001v-1.57v-1.57
	c0.02518-0.23337-0.04662-0.45485-0.18304-0.62428s-0.33749-0.28682-0.57086-0.312c-0.0226-0.00244-0.04527-0.00397-0.06796-0.00459
	c-0.02271-0.00062-0.04543-0.00033-0.06813,0.00087c-0.29494,0.01771-0.55478,0.15329-0.73647,0.35818
	c-0.18167,0.20489-0.28519,0.47909-0.26749,0.77403c0.00049,0.00798,0.00105,0.01595,0.00171,0.02392
	s0.0014,0.01592,0.00224,0.02387v1.455v1.455h-0.67999h-0.68001v-3.575v-3.575h0.68001h0.67999l-0.005,1.34L135.22,6.69778z"/>
<path class="st0" d="M140.67999,6.72778L140.67999,6.72778L140.67999,6.72778c0.15489-0.27107,0.37894-0.48762,0.64223-0.63312
	c0.26331-0.1455,0.56586-0.21997,0.87778-0.20688c0.48877-0.00176,0.93199,0.19476,1.25345,0.51391
	c0.32146,0.31915,0.52116,0.76094,0.52292,1.2497c0.00009,0.0261-0.00038,0.05219-0.00145,0.07826
	c-0.00105,0.02607-0.0027,0.05212-0.00491,0.07812v1.675v1.675h-0.675h-0.675v-1.57v-1.57
	c0.02518-0.23337-0.04662-0.45485-0.18304-0.62428s-0.33749-0.28682-0.57086-0.312c-0.0226-0.00244-0.04527-0.00397-0.06796-0.00459
	c-0.02271-0.00062-0.04543-0.00033-0.06813,0.00087c-0.29494,0.01771-0.55478,0.15329-0.73647,0.35818
	c-0.18167,0.20489-0.28519,0.47909-0.26749,0.77403c0.00049,0.00798,0.00105,0.01595,0.00171,0.02392
	s0.0014,0.01592,0.00224,0.02387v1.455v1.455H140.05H139.37v-2.575v-2.575h0.66501H140.7l-0.00999,0.355L140.67999,6.72778z"/>
<path class="st0" d="M144.84,4.01778H145.52H146.2v0.61v0.61H145.52H144.84v-0.61V4.01778z M144.84,6.01778H145.52H146.2v2.565
	v2.565H145.52H144.84v-2.565V6.01778z"/>
<path class="st0" d="M146.83,8.59777c-0.04977-0.69686,0.18762-1.34793,0.61168-1.83723s1.03477-0.81682,1.73163-0.8666
	c0.03606-0.00258,0.07216-0.00438,0.10829-0.00541c0.03612-0.00103,0.07227-0.00128,0.1084-0.00076
	c0.57611-0.04502,1.11974,0.13868,1.53876,0.47678c0.41904,0.3381,0.71349,0.83061,0.79124,1.40322h-0.66499H150.39
	c-0.03714-0.22994-0.15569-0.42893-0.32318-0.56969c-0.16748-0.14076-0.38391-0.22329-0.61682-0.22031
	c-0.41,0-0.72,0.1575-0.92751,0.43875c-0.20749,0.28125-0.3125,0.68625-0.3125,1.18125s0.0975,0.9,0.29875,1.18125
	s0.50626,0.43875,0.92125,0.43875c0.25264,0.00214,0.48622-0.09011,0.66486-0.24552s0.30231-0.37398,0.33514-0.62448h0.655h0.655
	c-0.0367,0.5898-0.30898,1.1089-0.71954,1.47136s-0.95941,0.56831-1.54922,0.5316c-0.00687-0.00043-0.01375-0.00089-0.02061-0.00138
	c-0.00687-0.00049-0.01375-0.00102-0.02061-0.00158c-0.70091,0.02628-1.34612-0.23403-1.82266-0.67614
	c-0.47655-0.44211-0.78444-1.06601-0.81071-1.76692c-0.0016-0.04282-0.00212-0.08568-0.00157-0.12852
	c0.00056-0.04284,0.00221-0.08566,0.00494-0.12843"/>
<path class="st0" d="M155.53,10.58777L155.53,10.58777L155.53,10.58777c-0.1653,0.24954-0.39436,0.44121-0.65633,0.56091
	s-0.55681,0.16743-0.85367,0.12909c-0.5,0-0.94749-0.1375-1.26999-0.4025c-0.32249-0.265-0.52-0.6575-0.52-1.1675
	s0.23001-0.8825,0.60251-1.1475c0.3725-0.265,0.8875-0.4225,1.45749-0.5025c0.425-0.06,0.73502-0.1075,0.93877-0.18875
	c0.20375-0.08125,0.30124-0.19625,0.30124-0.39125s-0.07249-0.3475-0.21625-0.45125
	c-0.14374-0.10375-0.35875-0.15875-0.64375-0.15875s-0.52249,0.0575-0.69499,0.17625c-0.1725,0.11875-0.28,0.29875-0.30501,0.54375
	h-0.605h-0.60501c0-0.45,0.17751-0.8725,0.54251-1.1825c0.36501-0.31,0.9175-0.5075,1.6675-0.5075s1.29001,0.1725,1.6425,0.495
	c0.35251,0.3225,0.5175,0.795,0.5175,1.395v1.305v1.305c0,0.195,0.015,0.35,0.045,0.4675c0.03,0.1175,0.075,0.1975,0.13499,0.2425
	v0.025v0.025h-0.655h-0.655c-0.04681-0.08815-0.08388-0.18083-0.1107-0.27638c-0.02681-0.09555-0.04341-0.19397-0.0493-0.29362
	 M155.54001,9.34777v-0.385v-0.385c-0.15105,0.07068-0.30641,0.13124-0.46509,0.18135s-0.32066,0.08977-0.48491,0.11865
	c-0.355,0.08-0.62,0.16-0.79625,0.28c-0.17624,0.12-0.26375,0.28-0.26375,0.52s0.08,0.4025,0.22,0.505
	c0.14001,0.1025,0.34001,0.145,0.58,0.145c0.39,0,0.6925-0.12,0.89751-0.305c0.205-0.185,0.3125-0.435,0.3125-0.695"/>
<polygon class="st0" points="157.7,4.00777 158.38,4.00777 159.06,4.00777 159.06,7.58277 159.06,11.15777 158.38,11.15777 
	157.7,11.15777 157.7,7.58277 "/>
<polygon class="st0" points="80.35001,14.00777 81.075,14.00777 81.8,14.00777 81.8,17.58278 81.8,21.15777 81.075,21.15777 
	80.35001,21.15777 80.35001,17.58278 "/>
<path class="st0" d="M84.13,16.72777L84.13,16.72777L84.13,16.72777c0.15489-0.27107,0.37892-0.48762,0.64221-0.63312
	c0.2633-0.1455,0.56585-0.21997,0.87778-0.20688c0.48877-0.00176,0.93198,0.19476,1.25343,0.51392
	c0.32146,0.31915,0.52116,0.76094,0.52292,1.24971c0.00009,0.0261-0.00039,0.05219-0.00145,0.07826
	s-0.00269,0.05211-0.00491,0.07812v1.675v1.675h-0.665H86.09v-1.57v-1.57c0.02518-0.23337-0.04662-0.45485-0.18304-0.62428
	c-0.13644-0.16944-0.3375-0.28682-0.57086-0.312c-0.0226-0.00244-0.04527-0.00397-0.06798-0.00459
	c-0.0227-0.00062-0.04543-0.00033-0.06812,0.00087c-0.29494,0.01771-0.55479,0.15329-0.73647,0.35818
	s-0.28519,0.47909-0.26748,0.77403c0.00047,0.00798,0.00105,0.01595,0.0017,0.02392c0.00066,0.00797,0.0014,0.01592,0.00224,0.02387
	v1.455v1.455h-0.7h-0.7v-2.575v-2.575h0.665h0.665v0.355V16.72777z"/>
<path class="st0" d="M87.97,19.49777h0.63h0.63c0.03876,0.27114,0.18298,0.50145,0.38539,0.65507
	c0.20242,0.15362,0.46304,0.23055,0.73461,0.19493c0.3,0,0.535-0.0575,0.695-0.16c0.16-0.1025,0.245-0.25,0.245-0.43
	s-0.16251-0.315-0.41251-0.4225s-0.58749-0.1875-0.93749-0.2575c-0.46-0.09-0.915-0.1975-1.255-0.4225
	c-0.34-0.225-0.56499-0.5675-0.56499-1.1275s0.23-0.97,0.60625-1.24c0.37625-0.27,0.89875-0.4,1.48375-0.4
	c0.675,0,1.2,0.1675,1.56875,0.46375C92.1475,16.64778,92.36,17.07278,92.41,17.58778H91.795H91.18
	c-0.03-0.275-0.1325-0.4625-0.30125-0.58125C90.71,16.88778,90.475,16.83778,90.18,16.83778s-0.515,0.05-0.66125,0.14625
	C89.3725,17.08028,89.3,17.22278,89.3,17.40778s0.17,0.305,0.43124,0.3975c0.26125,0.0925,0.61375,0.1575,0.97876,0.2325
	c0.365,0.075,0.8175,0.18,1.17875,0.41625C92.25,18.69028,92.52,19.05778,92.52,19.65778c0,0.5-0.22,0.9125-0.60001,1.2
	c-0.38,0.2875-0.92,0.45-1.56,0.45c-0.745,0-1.325-0.18-1.72875-0.49625S88,20.04278,87.96,19.49778"/>
<path class="st0" d="M92.74001,16.01777h0.355h0.355v-0.8v-0.8h0.665h0.665v0.8v0.8h0.42h0.42v0.45v0.45h-0.44h-0.43999v1.36v1.36
	c-0.01786,0.12297,0.01582,0.24154,0.0847,0.33384c0.06889,0.09229,0.17298,0.1583,0.29595,0.17616
	c0.02145,0.00311,0.04306,0.00467,0.06467,0.00467s0.04323-0.00156,0.06467-0.00467h0.2h0.2v0.5v0.5c0,0-0.0775,0-0.2225,0
	c-0.145,0-0.3575,0-0.62749,0c-0.27,0-0.6175-0.065-0.8975-0.25125c-0.28001-0.18625-0.4925-0.49375-0.4925-0.97875v-1.5v-1.5
	h-0.355h-0.355l0.02-0.45L92.74001,16.01777z"/>
<path class="st0" d="M96.36,14.01777h0.68h0.68v0.61v0.61h-0.68h-0.68v-0.61V14.01777z M96.36,16.01777h0.68h0.68v2.565v2.565h-0.68
	h-0.68v-2.565V16.01777z"/>
<path class="st0" d="M98.3,16.01777h0.355h0.355v-0.8v-0.8h0.665h0.665v0.8v0.8H100.78h0.44v0.45v0.45h-0.44H100.34v1.36v1.36
	c-0.01786,0.12297,0.01582,0.24154,0.0847,0.33384c0.06889,0.09229,0.17298,0.1583,0.29595,0.17616
	c0.02145,0.00311,0.04306,0.00467,0.06467,0.00467s0.04323-0.00156,0.06467-0.00467h0.2h0.2v0.5v0.5c0,0-0.0775,0-0.2225,0
	c-0.145,0-0.3575,0-0.62749,0c-0.27,0-0.6175-0.065-0.89751-0.25125c-0.28-0.18625-0.49249-0.49375-0.49249-0.97875v-1.5v-1.5
	h-0.355h-0.355l-0.00001-0.45V16.01777z"/>
<path class="st0" d="M105.16,21.15777v-0.3v-0.3l0,0l0,0c-0.16162,0.24544-0.38242,0.43862-0.63615,0.56636
	c-0.25375,0.12773-0.54044,0.19002-0.83385,0.17364c-0.45996,0.03319-0.88983-0.12319-1.21301-0.40287
	s-0.53967-0.68264-0.57286-1.1426c-0.00366-0.05074-0.005-0.10159-0.00402-0.1524c0.00098-0.05081,0.00428-0.10157,0.0099-0.15213
	v-1.715v-1.715h0.675h0.675v1.6v1.6c0,0.3,0.0675,0.5325,0.2075,0.69s0.3525,0.24,0.6425,0.24
	c0.27612,0.00356,0.52754-0.10513,0.71082-0.28375s0.29842-0.42715,0.30199-0.70327
	c0.00037-0.02896-0.00051-0.05791-0.00265-0.08677c-0.00214-0.02886-0.00553-0.05762-0.01016-0.08621v-1.485v-1.485h0.68h0.68v2.565
	v2.565l-0.655,0.005L105.16,21.15777z"/>
<path class="st0" d="M107.05,16.01777h0.355h0.355v-0.8v-0.8h0.665h0.665v0.8v0.8H109.53h0.44v0.45v0.45h-0.44H109.09v1.36v1.36
	c-0.01786,0.12297,0.01582,0.24154,0.0847,0.33384c0.06889,0.09229,0.17298,0.1583,0.29595,0.17616
	c0.02145,0.00311,0.04306,0.00467,0.06467,0.00467s0.04323-0.00156,0.06467-0.00467h0.2h0.2v0.5v0.5c0,0-0.0775,0-0.2225,0
	c-0.145,0-0.3575,0-0.62749,0c-0.27,0-0.6175-0.065-0.89751-0.25125c-0.28-0.18625-0.49249-0.49375-0.49249-0.97875v-1.5v-1.5
	h-0.355h-0.355l-0.00001-0.45V16.01777z"/>
<path class="st0" d="M110.37,18.58777c-0.04419-0.70001,0.19955-1.35166,0.62933-1.83935s1.04561-0.81143,1.74562-0.85561
	c0.02581-0.00163,0.05164-0.00286,0.07748-0.0037c0.02585-0.00084,0.0517-0.00129,0.07757-0.00134
	c0.825,0,1.4575,0.315,1.88375,0.85875c0.42625,0.54375,0.64625,1.31625,0.64625,2.23125h-1.86h-1.86
	c-0.0001,0.35346,0.14308,0.6735,0.37466,0.9052c0.23157,0.2317,0.55153,0.37506,0.90499,0.37515
	c0.00506,0,0.01012-0.00003,0.01517-0.00009c0.00506-0.00006,0.01012-0.00015,0.01517-0.00027
	c0.21752,0.01526,0.42745-0.04084,0.60303-0.15145c0.17558-0.11062,0.31682-0.27575,0.39697-0.47854h0.67h0.67
	c-0.12646,0.52785-0.43599,0.97012-0.84914,1.26929c-0.41315,0.29917-0.92991,0.45525-1.47086,0.41071
	c-0.70053,0.03496-1.34892-0.21733-1.83091-0.65349c-0.48199-0.43617-0.79758-1.0562-0.83255-1.75673
	c-0.00258-0.05161-0.00358-0.10328-0.003-0.15494c0.00057-0.05165,0.00272-0.10329,0.00645-0.15483 M111.73999,18.03778h1.14h1.14
	c0.00553-0.29818-0.11032-0.57038-0.3021-0.76941s-0.45949-0.32491-0.75767-0.33045
	c-0.00504-0.00009-0.01008-0.00015-0.01511-0.00017s-0.01008-0.00001-0.01511,0.00004
	c-0.31449-0.01399-0.60488,0.10082-0.82014,0.29774c-0.21527,0.19693-0.35541,0.47598-0.36939,0.79046
	c-0.00009,0.00197-0.00018,0.00393-0.00025,0.0059C111.74013,18.03385,111.74006,18.03581,111.73999,18.03778"/>
<path class="st0" d="M117.44,16.01777h0.35h0.35v-0.23v-0.23c0-0.625,0.25-1.0475,0.66-1.29625
	c0.41-0.24875,0.98-0.32375,1.62-0.25375v0.525v0.525c-0.32,0-0.55,0.0125-0.7,0.09125
	C119.57,15.22778,119.5,15.37278,119.5,15.63778v0.19v0.19h0.46h0.46v0.5v0.5h-0.46h-0.46v2.095v2.095h-0.68h-0.68v-2.095v-2.095
	h-0.35h-0.35v-0.5V16.01777z"/>
<path class="st0" d="M120.62,18.59777c0.00552-0.74004,0.31048-1.40778,0.79907-1.88914
	c0.48859-0.48135,1.16081-0.77631,1.90086-0.77079c0.74004,0.00552,1.40778,0.31049,1.88913,0.79908
	s0.77631,1.16081,0.77079,1.90085c-0.00549,0.73612-0.30739,1.40111-0.79194,1.88208
	c-0.48456,0.48096-1.15177,0.7779-1.88791,0.77792c-0.72046,0.01977-1.38073-0.25436-1.86582-0.71354
	s-0.79501-1.10343-0.81478-1.82389c-0.00075-0.02709-0.00107-0.05419-0.00097-0.08129
	C120.61853,18.65196,120.61906,18.62486,120.62,18.59777 M124.62,18.59777c0-0.5-0.1175-0.92-0.33875-1.215
	s-0.54625-0.465-0.96125-0.465s-0.74001,0.17-0.96126,0.465c-0.22124,0.295-0.33875,0.715-0.33875,1.215s0.115,0.9175,0.335,1.21
	c0.22,0.2925,0.545,0.46,0.965,0.46c0.42,0,0.745-0.1675,0.965-0.46C124.505,19.51527,124.62,19.09777,124.62,18.59777"/>
<path class="st0" d="M127.94001,16.84777L127.94001,16.84777L127.94001,16.84777c0.09788-0.26355,0.2723-0.48297,0.49255-0.6368
	c0.22025-0.15382,0.48631-0.24205,0.76744-0.2432c0.0529-0.00967,0.10646-0.0145,0.16-0.0145c0.05356,0,0.10712,0.00483,0.16,0.0145
	v0.595v0.595l0,0l0,0c-0.3492-0.07038-0.69386,0.00743-0.96884,0.19015c-0.27496,0.18272-0.48022,0.47033-0.55061,0.81953
	c-0.01494,0.07416-0.02331,0.14935-0.02507,0.2247s0.00307,0.15084,0.01453,0.22562v1.25v1.25h-0.68501H126.62v-2.55v-2.55h0.655
	h0.655l0.005,0.415L127.94001,16.84777z"/>
<path class="st0" d="M131.51999,16.01777h0.35501h0.355v-0.8v-0.8h0.66501H133.56v0.8v0.8H134h0.44v0.45v0.45H134h-0.44v1.36v1.36
	c-0.01785,0.12297,0.01582,0.24154,0.0847,0.33384c0.06889,0.09229,0.17299,0.1583,0.29596,0.17616
	c0.02144,0.00311,0.04306,0.00467,0.06467,0.00467s0.04323-0.00156,0.06467-0.00467h0.2h0.2v0.5v0.5c0,0-0.0775,0-0.22249,0
	c-0.145,0-0.35751,0-0.62752,0s-0.61749-0.065-0.89749-0.25125c-0.28-0.18625-0.49251-0.49375-0.49251-0.97875v-1.5v-1.5h-0.355
	h-0.35501l0.00002-0.45V16.01777z"/>
<path class="st0" d="M136.5,16.69777L136.5,16.69777L136.5,16.69777c0.15384-0.26289,0.37421-0.47231,0.63217-0.61255
	c0.25798-0.14024,0.55356-0.21129,0.85783-0.19745c0.48877-0.00176,0.93199,0.19476,1.25345,0.51391
	c0.32146,0.31915,0.52116,0.76093,0.52292,1.2497c0.00009,0.0261-0.00038,0.05219-0.00145,0.07826
	c-0.00105,0.02607-0.0027,0.05212-0.00491,0.07812v1.675v1.675h-0.67999h-0.68001v-1.57v-1.57
	c0.02518-0.23337-0.04662-0.45485-0.18304-0.62428c-0.13643-0.16944-0.33749-0.28682-0.57086-0.312
	c-0.0226-0.00244-0.04527-0.00397-0.06796-0.00459c-0.02271-0.00062-0.04543-0.00033-0.06813,0.00087
	c-0.29494,0.01771-0.55478,0.15329-0.73647,0.35818c-0.18167,0.20489-0.28519,0.47909-0.26749,0.77403
	c0.00049,0.00798,0.00105,0.01595,0.00171,0.02392c0.00066,0.00797,0.0014,0.01592,0.00224,0.02387v1.455v1.455h-0.67999h-0.68001
	v-3.575v-3.575h0.68001h0.67999l-0.005,1.34L136.5,16.69777z"/>
<path class="st0" d="M140.37999,18.58777c-0.04417-0.70001,0.19955-1.35166,0.62933-1.83935s1.04561-0.81143,1.74562-0.85561
	c0.02582-0.00163,0.05165-0.00286,0.07748-0.0037c0.02585-0.00084,0.0517-0.00129,0.07756-0.00134
	c0.825,0,1.4575,0.315,1.88376,0.85875c0.42624,0.54375,0.64624,1.31625,0.64624,2.23125H143.58h-1.86
	c-0.00009,0.35346,0.14308,0.6735,0.37466,0.9052c0.23157,0.2317,0.55153,0.37506,0.90498,0.37515
	c0.00507,0,0.01012-0.00003,0.01518-0.00009c0.00505-0.00006,0.01012-0.00015,0.01517-0.00027
	c0.21753,0.01526,0.42746-0.04084,0.60304-0.15145s0.31682-0.27575,0.39696-0.47854h0.67h0.67
	c-0.12646,0.52785-0.43599,0.97012-0.84914,1.2693c-0.41315,0.29917-0.92992,0.45525-1.47087,0.4107
	c-0.70053,0.03496-1.34891-0.21733-1.8309-0.65349c-0.48199-0.43617-0.79759-1.0562-0.83255-1.75673
	c-0.00258-0.05161-0.00357-0.10328-0.00299-0.15494c0.00056-0.05165,0.00272-0.10329,0.00644-0.15483 M141.74998,18.03778h1.14h1.14
	c0.00554-0.29818-0.11031-0.57038-0.30208-0.76941c-0.19179-0.19904-0.4595-0.32491-0.75769-0.33045
	c-0.00504-0.00009-0.01007-0.00015-0.01511-0.00017s-0.01009-0.00001-0.01512,0.00004
	c-0.31448-0.01399-0.60487,0.10082-0.82014,0.29774c-0.21526,0.19693-0.35541,0.47598-0.3694,0.79046
	c-0.00008,0.00197-0.00015,0.00393-0.00023,0.0059C141.75014,18.03385,141.75006,18.03581,141.74998,18.03778"/>
<path class="st0" d="M147.86,14.01777h1.38H150.62c0.955,0,1.74001,0.385,2.28625,1.03375s0.85374,1.56125,0.85374,2.61625
	c0.02534,0.52782-0.06625,1.04781-0.26088,1.52585c-0.19464,0.47804-0.49231,0.91413-0.87912,1.27415
	c-0.30034,0.23875-0.63867,0.41936-0.99776,0.53623c-0.35909,0.11687-0.73891,0.17-1.12224,0.15377h-1.33499H147.83l0.015-3.57
	L147.86,14.01777z M150.43001,19.91777c0.68001,0,1.15251-0.2075,1.455-0.5925c0.30251-0.385,0.435-0.9475,0.435-1.6575
	c0-0.71-0.155-1.3125-0.46375-1.7375c-0.30875-0.425-0.77126-0.6725-1.38626-0.6725h-0.58h-0.58v2.33v2.33h0.56001H150.43001z"/>
<path class="st0" d="M154.22,18.58777c-0.04417-0.70001,0.19955-1.35166,0.62933-1.83935s1.04561-0.81143,1.74562-0.85561
	c0.02582-0.00163,0.05165-0.00286,0.07748-0.0037c0.02585-0.00084,0.0517-0.00129,0.07756-0.00134
	c0.825,0,1.4575,0.315,1.88376,0.85875c0.42624,0.54375,0.64624,1.31625,0.64624,2.23125h-1.86h-1.86
	c-0.00009,0.35346,0.14308,0.6735,0.37466,0.9052c0.23157,0.2317,0.55153,0.37506,0.90498,0.37515
	c0.00507,0,0.01012-0.00003,0.01518-0.00009c0.00505-0.00006,0.01012-0.00015,0.01517-0.00027
	c0.21753,0.01526,0.42746-0.04084,0.60304-0.15145s0.31682-0.27575,0.39696-0.47854h0.67h0.67
	c-0.12646,0.52785-0.43599,0.97012-0.84914,1.2693c-0.41315,0.29917-0.92992,0.45525-1.47087,0.4107
	c-0.70053,0.03496-1.34891-0.21733-1.8309-0.65349c-0.48199-0.43617-0.79759-1.0562-0.83255-1.75673
	c-0.00258-0.05161-0.00357-0.10328-0.00299-0.15494c0.00056-0.05165,0.00272-0.10329,0.00644-0.15483 M155.62,18.01777h1.14h1.14
	c0.00554-0.29818-0.11031-0.57038-0.30208-0.76941c-0.19179-0.19904-0.4595-0.32491-0.75769-0.33045
	c-0.00504-0.00009-0.01007-0.00015-0.01511-0.00017s-0.01009-0.00001-0.01512,0.00004
	c-0.31448-0.01399-0.60487,0.10082-0.82014,0.29774c-0.21526,0.19693-0.35541,0.47598-0.3694,0.79046
	c-0.00008,0.00197-0.00015,0.00393-0.00023,0.0059C155.62015,18.01384,155.62007,18.01581,155.62,18.01777"/>
<path class="st0" d="M162.98,20.58777L162.98,20.58777L162.98,20.58777c-0.1653,0.24954-0.39436,0.44121-0.65633,0.56091
	c-0.26196,0.1197-0.55681,0.16743-0.85367,0.12909c-0.52499,0-0.97249-0.1375-1.28874-0.4025
	c-0.31625-0.265-0.50125-0.6575-0.50125-1.1675s0.235-0.8825,0.6075-1.1525s0.88249-0.4375,1.4325-0.5375
	c0.425-0.06,0.73502-0.1075,0.93877-0.18875c0.20375-0.08125,0.30124-0.19625,0.30124-0.39125s-0.07249-0.3475-0.21625-0.45125
	c-0.14374-0.10375-0.35875-0.15875-0.64375-0.15875s-0.52249,0.0575-0.69499,0.17625s-0.28,0.29875-0.30501,0.54375h-0.605H159.89
	c0-0.45,0.17751-0.8725,0.54251-1.1825c0.36501-0.31,0.9175-0.5075,1.6675-0.5075s1.29001,0.1725,1.6425,0.495
	c0.35251,0.3225,0.5175,0.795,0.5175,1.395v1.305v1.305c0,0.195,0.015,0.35,0.045,0.4675s0.075,0.1975,0.13499,0.2425v0.025v0.025
	h-0.655h-0.655c-0.04681-0.08815-0.08388-0.18083-0.1107-0.27638c-0.02681-0.09555-0.04341-0.19397-0.0493-0.29362 M162.97,19.30777
	v-0.385v-0.385c-0.15895,0.07283-0.32256,0.13448-0.48961,0.1846c-0.16707,0.05012-0.3376,0.08871-0.51039,0.1154
	c-0.355,0.08-0.62,0.16-0.79625,0.28c-0.17624,0.12-0.26375,0.28-0.26375,0.52s0.08,0.4025,0.22,0.505
	c0.14001,0.1025,0.34001,0.145,0.58,0.145c0.39,0,0.6925-0.12,0.89751-0.305c0.205-0.185,0.3125-0.435,0.3125-0.695"/>
<path class="st0" d="M164.83,16.01777h0.35001H165.53v-0.23v-0.23c0-0.625,0.25-1.0475,0.66-1.29625
	c0.41-0.24875,0.98-0.32375,1.62-0.25375v0.525v0.525c-0.31999,0-0.54999,0.0125-0.7,0.09125
	c-0.14999,0.07875-0.22,0.22375-0.22,0.48875v0.19v0.19h0.46001H167.81v0.5v0.5h-0.45999H166.89v2.095v2.095h-0.67999H165.53v-2.095
	v-2.095h-0.34999H164.83v-0.5V16.01777z"/>
</svg>
