<?xml version="1.0" encoding="UTF-8"?><svg xmlns="http://www.w3.org/2000/svg" width="445.226" height="174.137" viewBox="0 0 445.226 174.137"><g id="a"><path d="M69.406,32.884c1.859,0,3.1,1.24,3.985,3.453,1.062-2.214,2.568-3.453,4.694-3.453h14.878c2.303,0,4.074,1.859,4.074,4.074v7.828c0,2.656-1.327,4.074-4.074,4.074-2.656,0-4.074-1.417-4.074-4.074v-3.754h-10.539c-1.771,0-2.656.974-2.656,2.746v27.188h10.007c2.658,0,4.074,1.328,4.074,4.074s-1.416,4.074-4.074,4.074h-26.39c-2.658,0-3.985-1.328-3.985-4.074s1.327-4.074,3.985-4.074h8.236v-29.934h-7.262c-2.656,0-3.985-1.328-3.985-4.074,0-2.657,1.329-4.074,3.985-4.074h9.121Z" fill="#7d756a" stroke-width="0"/><path d="M181.068,32.884c2.656,0,4.074,1.417,4.074,4.074v34.008h10.095c2.747,0,4.074,1.328,4.074,4.074s-1.327,4.074-4.074,4.074h-28.605c-2.656,0-4.074-1.328-4.074-4.074s1.417-4.074,4.074-4.074h10.362v-29.934h-8.533c-2.745,0-4.074-1.328-4.074-4.074,0-2.657,1.329-4.074,4.074-4.074h12.607ZM185.288,15.269c0,3.188-2.71,5.819-5.819,5.819-3.189,0-5.898-2.63-5.898-5.819s2.709-5.819,5.898-5.819c3.108,0,5.819,2.63,5.819,5.819Z" fill="#7d756a" stroke-width="0"/><path d="M246.978,36.958c0,.531-.088,1.151-.267,1.594l-14.878,38.081c-.709,1.683-1.948,2.48-3.72,2.48h-5.933c-1.859,0-3.188-.797-3.809-2.48l-15.054-38.081c-.267-.443-.355-1.063-.355-1.594,0-2.303,1.861-4.074,4.164-4.074,1.859,0,3.01.974,3.718,2.656l14.348,36.134,13.904-36.134c.709-1.683,1.859-2.656,3.72-2.656,2.301,0,4.162,1.771,4.162,4.074Z" fill="#7d756a" stroke-width="0"/><path d="M127.984,55.606l-32.74,38.853c-1.287,1.371-2.084,3.777-1.365,5.504.752,1.805,2.464,2.913,4.396,2.913,1.088,0,1.986-.382,3.16-1.562l40.192-42.715c1.605-1.688,1.623-4.332.042-6.041" fill="#c4d930" stroke-width="0"/><path d="M127.984,55.606l31.188-38.268c1.492-1.989,2.197-3.03,1.492-4.723-.737-1.768-2.587-3.161-4.481-3.161h0c-1.061,0-1.72.094-3.008,1.108l-38.628,41.763c-1.72,1.839-1.713,4.699.016,6.53l47.785,51.071c1.022,1.048,2.049,1.192,3.138,1.192,1.933,0,3.187-1.137,4.027-2.818.719-1.727-.076-3.438-1.403-5.23l-40.125-47.465" fill="#7d756a" stroke-width="0"/><path d="M141.668,52.558L95.004,2.125S93.291.045,91.48.001s-3.601,1.02-4.338,2.787c-.705,1.693-.199,2.881,1.349,5.097l39.493,47.721" fill="#c4d930" stroke-width="0"/><path d="M32.445,32.884c5.017,0,8.206,3.312,8.206,8.398v37.831H5.143c-2.885,0-5.143-1.874-5.143-4.929v-13.027c0-4.074,2.835-7.35,6.997-8.148l25.507-3.573v-8.405H4.141c-2.053,0-4.141-1.45-4.141-4.074,0-2.87,2.142-4.074,4.355-4.074h28.09ZM32.504,70.965v-13.293l-24.354,3.396v9.897h24.354Z" fill="#7d756a" stroke-width="0"/></g><g id="b"><path d="M206.156,124.076l-.421-2.943h-9.714l-.378,2.943c-.252,1.683-1.219,2.523-2.859,2.523-1.935,0-2.944-.967-2.944-2.901l3.448-24.265v.042c.294-2.523,1.851-3.785,4.668-3.785h5.887c2.607,0,4.374,1.262,4.71,3.743l3.406,24.181c0,1.724-1.304,2.985-2.985,2.985s-2.607-.841-2.817-2.523ZM196.82,115.287h8.074l-1.935-13.751h-4.163l-1.977,13.751Z" fill="#b3bf35" stroke-width="0"/><path d="M228.91,120.754c1.608,0,2.431.968,2.431,2.86,0,1.977-.822,2.943-2.502,2.943h-2.968c-8.366,0-12.549-5.089-12.549-15.308v-5.593c0-6.645,2.753-9.967,8.188-9.967h7.222c1.752,0,2.609,1.01,2.609,2.943s-.857,2.902-2.609,2.902h-7.473c-2.002,0-3.038,1.178-3.038,3.532v6.182c0,6.351,2.538,9.504,7.65,9.504h3.039Z" fill="#b3bf35" stroke-width="0"/><path d="M248.713,120.754c1.609,0,2.432.968,2.432,2.86,0,1.977-.822,2.943-2.503,2.943h-2.968c-8.365,0-12.548-5.089-12.548-15.308v-5.593c0-6.645,2.752-9.967,8.187-9.967h7.222c1.752,0,2.61,1.01,2.61,2.943s-.858,2.902-2.61,2.902h-7.472c-2.002,0-3.039,1.178-3.039,3.532v6.182c0,6.351,2.538,9.504,7.65,9.504h3.039Z" fill="#b3bf35" stroke-width="0"/><path d="M259.682,107.592h10.682c1.935,0,2.943,1.009,2.943,2.943s-1.009,2.859-2.943,2.859h-10.682v2.397c0,3.28,1.851,4.962,5.593,4.962h6.267c1.893,0,2.859.968,2.859,2.86,0,1.977-.967,2.943-2.859,2.943h-5.846c-7.906,0-11.817-3.995-11.817-12.027v-17.704c0-.631.463-1.136,1.052-1.136h16.19c1.935,0,2.901,1.01,2.901,2.943s-.967,2.902-2.901,2.902h-11.438v6.056Z" fill="#b3bf35" stroke-width="0"/><path d="M293.325,95.691c2.146,0,3.196,1.01,3.196,2.901,0,1.977-1.051,2.944-3.196,2.944h-8.705c-1.64,0-2.48.925-2.48,2.817,0,1.809.841,2.691,2.522,2.691h6.267c4.542,0,6.771,2.019,6.771,6.056,0,8.957-4.542,13.457-13.625,13.457h-4.079c-2.104,0-3.112-.925-3.112-2.817,0-1.977,1.009-2.986,3.112-2.986h4.583c4.837,0,7.275-2.187,7.275-6.56,0-.884-.42-1.346-1.262-1.346h-5.257c-6.013,0-9.083-2.902-9.083-8.663,0-5.636,3.07-8.495,9.083-8.495h7.99Z" fill="#b3bf35" stroke-width="0"/><path d="M317.381,95.691c2.146,0,3.196,1.01,3.196,2.901,0,1.977-1.051,2.944-3.196,2.944h-8.705c-1.64,0-2.48.925-2.48,2.817,0,1.809.841,2.691,2.522,2.691h6.267c4.542,0,6.771,2.019,6.771,6.056,0,8.957-4.542,13.457-13.625,13.457h-4.079c-2.104,0-3.112-.925-3.112-2.817,0-1.977,1.009-2.986,3.112-2.986h4.583c4.837,0,7.275-2.187,7.275-6.56,0-.884-.42-1.346-1.262-1.346h-5.257c-6.013,0-9.083-2.902-9.083-8.663,0-5.636,3.07-8.495,9.083-8.495h7.99Z" fill="#b3bf35" stroke-width="0"/><path d="M330.881,98.634v24.98c0,1.977-1.009,2.943-2.901,2.943-1.977,0-2.944-.967-2.944-2.943v-24.98c0-1.934.968-2.943,2.944-2.943,1.893,0,2.901,1.01,2.901,2.943Z" fill="#b3bf35" stroke-width="0"/><path d="M334.834,96.826c0-.631.463-1.136,1.052-1.136h12.784c4.289,0,6.434,2.145,6.434,6.435v2.354c0,2.229-.589,4.163-1.682,5.467,1.304,1.262,2.103,2.775,2.103,4.794,0,7.906-3.869,11.817-11.649,11.817h-7.989c-.589,0-1.052-.463-1.052-1.094v-28.638ZM340.637,107.718h6.266c1.682,0,2.271-1.136,2.271-3.238v-2.019c0-.589-.252-.925-.757-.925h-7.779v6.182ZM340.637,113.48v7.274h3.532c3.7,0,5.551-1.977,5.551-6.014,0-.841-.547-1.261-1.724-1.261h-7.359Z" fill="#b3bf35" stroke-width="0"/><path d="M364.439,98.634v24.98c0,1.977-1.009,2.943-2.901,2.943-1.977,0-2.944-.967-2.944-2.943v-24.98c0-1.934.968-2.943,2.944-2.943,1.893,0,2.901,1.01,2.901,2.943Z" fill="#b3bf35" stroke-width="0"/><path d="M374.195,98.634v22.12h11.691c1.935,0,2.901.968,2.901,2.86,0,1.977-.967,2.943-2.901,2.943h-14.635c-1.472,0-2.859-1.304-2.859-2.943v-24.98c0-1.934.925-2.943,2.859-2.943s2.943,1.01,2.943,2.943Z" fill="#b3bf35" stroke-width="0"/><path d="M396.988,98.634v24.98c0,1.977-1.009,2.943-2.901,2.943-1.977,0-2.943-.967-2.943-2.943v-24.98c0-1.934.967-2.943,2.943-2.943,1.893,0,2.901,1.01,2.901,2.943Z" fill="#b3bf35" stroke-width="0"/><path d="M418.352,95.691c1.892,0,2.901,1.01,2.901,2.943s-1.01,2.902-2.901,2.902h-5.089v22.12c0,1.977-.967,2.943-2.901,2.943-1.893,0-2.902-.967-2.902-2.943v-22.12h-4.962c-1.935,0-2.901-.968-2.901-2.902s.967-2.943,2.901-2.943h15.854Z" fill="#b3bf35" stroke-width="0"/><path d="M444.09,98.592c0,.631-.126,1.052-.253,1.304l-7.653,16.106v7.612c0,1.977-.925,2.943-2.859,2.943s-2.944-.967-2.944-2.943v-7.696l-7.611-16.022c-.168-.336-.252-.757-.252-1.304,0-1.64,1.304-2.901,2.943-2.901,1.052,0,1.893.589,2.523,1.725l5.257,11.228,5.214-11.228c.463-1.136,1.388-1.725,2.691-1.725,1.599,0,2.944,1.262,2.944,2.901Z" fill="#b3bf35" stroke-width="0"/><path d="M196.778,146.592h7.274c1.893,0,2.902,1.009,2.902,2.943s-1.01,2.859-2.902,2.859h-7.274v10.22c0,1.977-1.009,2.943-2.944,2.943s-2.859-.967-2.859-2.943v-26.788c0-.631.462-1.136,1.051-1.136h16.778c1.893,0,2.902,1.01,2.902,2.943s-1.01,2.902-2.902,2.902h-12.026v6.056Z" fill="#b3bf35" stroke-width="0"/><path d="M228.445,134.691c5.383,0,8.032,2.733,8.032,8.074v15.098c0,5.13-2.649,7.695-8.032,7.695h-6.477c-5.383,0-8.032-2.565-8.032-7.695v-15.098c0-5.341,2.649-8.074,8.032-8.074h6.477ZM228.866,159.754c1.219,0,1.808-.504,1.808-1.472v-15.938c0-1.22-.589-1.809-1.808-1.809h-7.317c-1.22,0-1.809.589-1.809,1.809v15.938c0,.968.589,1.472,1.809,1.472h7.317Z" fill="#b3bf35" stroke-width="0"/><path d="M247.959,162.446c0,2.103-1.009,3.112-2.943,3.112s-2.86-1.01-2.86-3.112v-26.619c0-.631.463-1.136,1.052-1.136h13.036c4.416,0,6.603,2.187,6.603,6.561v1.935c0,4.163-1.977,7.443-5.551,8.873l3.995,9.546c.126.463.252.841.252,1.052,0,1.682-1.43,2.943-2.943,2.943-1.262,0-2.145-.715-2.691-1.767l-4.458-10.597h-3.49v9.209ZM247.959,147.433h5.089c2.564,0,3.868-1.388,3.868-4.247v-1.725c0-.589-.294-.925-.799-.925h-8.158v6.896Z" fill="#b3bf35" stroke-width="0"/><path d="M274.032,137.634v21.111c0,.715.253,1.009.883,1.009h7.906c.631,0,.968-.294.968-1.009v-21.111c0-1.934.967-2.943,2.943-2.943,1.893,0,2.859,1.01,2.859,2.943v21.742c0,4.121-1.935,6.182-5.845,6.182h-9.462c-4.037,0-6.099-2.061-6.099-6.182v-21.742c0-1.934.968-2.943,2.902-2.943s2.943,1.01,2.943,2.943Z" fill="#b3bf35" stroke-width="0"/><path d="M322.773,137.887v24.728c0,1.977-1.01,2.943-2.944,2.943s-2.901-.967-2.901-2.943v-16.906l-4.92,6.729c-.757,1.094-1.43,1.599-2.691,1.599-1.052,0-1.893-.547-2.565-1.472l-5.677-7.443v17.494c0,1.977-1.01,2.943-2.902,2.943-1.935,0-2.901-.967-2.901-2.943v-24.728c0-2.103.841-3.196,2.481-3.196,1.009,0,2.019.505,2.817,1.598l8.663,10.893,8.032-10.766c.883-1.136,1.85-1.725,2.943-1.725,1.725,0,2.565,1.094,2.565,3.196Z" fill="#b3bf35" stroke-width="0"/><path d="M345.441,153.741c0-5.046,2.691-7.569,8.158-7.569h5.593v-5.635h-10.85c-1.935,0-2.901-.968-2.901-2.902s.967-2.943,2.901-2.943h13.752c1.64,0,2.943,1.514,2.943,2.943v11.439c0,1.64-1.304,2.901-2.943,2.901h-9.084c-1.178,0-1.766.673-1.766,1.935v5.845h10.934c1.977,0,2.943.968,2.943,2.86,0,1.977-.967,2.943-2.943,2.943h-13.836c-1.64,0-2.901-1.304-2.901-2.943v-8.874Z" fill="#6b6459" stroke-width="0"/><path d="M370.128,150.25c0-10.303,4.92-15.56,12.027-15.56,7.022,0,11.942,5.257,11.942,15.56,0,10.219-4.92,15.308-11.942,15.308-7.107,0-12.027-5.089-12.027-15.308ZM388.505,150.25c0-6.476-2.103-9.714-6.35-9.714s-6.393,3.238-6.393,9.714c0,6.351,2.145,9.504,6.393,9.504s6.35-3.153,6.35-9.504Z" fill="#6b6459" stroke-width="0"/><path d="M399.103,153.741c0-5.046,2.691-7.569,8.158-7.569h5.593v-5.635h-10.85c-1.935,0-2.901-.968-2.901-2.902s.967-2.943,2.901-2.943h13.751c1.641,0,2.944,1.514,2.944,2.943v11.439c0,1.64-1.304,2.901-2.944,2.901h-9.083c-1.178,0-1.767.673-1.767,1.935v5.845h10.935c1.977,0,2.943.968,2.943,2.86,0,1.977-.967,2.943-2.943,2.943h-13.836c-1.64,0-2.901-1.304-2.901-2.943v-8.874Z" fill="#6b6459" stroke-width="0"/><path d="M433.462,138.265l-3.532,16.443h6.434v-8.074c0-1.893.926-2.859,2.86-2.859s2.943.967,2.943,2.859v15.98c0,1.977-1.009,2.943-2.943,2.943s-2.86-.967-2.86-2.943v-2.061h-10.008c-1.935,0-2.902-.968-2.902-2.944,0-.967.042-1.851.211-2.649l4.079-17.872c.378-1.599,1.304-2.397,2.733-2.397,1.682,0,2.985.757,2.985,3.574Z" fill="#6b6459" stroke-width="0"/></g></svg>