<?xml version="1.0" encoding="UTF-8"?><svg id="a" xmlns="http://www.w3.org/2000/svg" width="1224.063" height="548.863" viewBox="0 0 1224.063 548.863"><g id="b"><path d="M456.19,402.143l-22.734,26.978c-.894.952-1.447,2.623-.948,3.822.522,1.253,1.711,2.023,3.052,2.023.756,0,1.379-.265,2.194-1.085l27.907-29.659c1.114-1.172,1.127-3.008.029-4.195" fill="#c4d82e" stroke-width="0"/><path d="M456.19,402.143l21.655-26.572c1.036-1.381,1.525-2.104,1.036-3.279-.512-1.228-1.796-2.195-3.111-2.195h0c-.737,0-1.194.065-2.089.769l-26.822,28.999c-1.194,1.277-1.189,3.263.011,4.534l33.18,35.462c.71.728,1.423.828,2.179.828,1.342,0,2.213-.79,2.796-1.957.499-1.199-.053-2.387-.974-3.631l-27.861-32.958" fill="#7c7469" stroke-width="0"/><path d="M465.692,400.027l-32.402-35.019s-1.189-1.444-2.447-1.475-2.5.708-3.012,1.935c-.49,1.175-.138,2,.936,3.539l27.422,33.136" fill="#c4d82e" stroke-width="0"/><path d="M497.283,418.182l-.421-2.943h-9.714l-.379,2.943c-.252,1.683-1.219,2.523-2.859,2.523-1.935,0-2.943-.967-2.943-2.901l3.448-24.265v.042c.294-2.523,1.851-3.785,4.668-3.785h5.888c2.607,0,4.373,1.262,4.71,3.743l3.406,24.181c0,1.724-1.304,2.985-2.986,2.985s-2.607-.841-2.817-2.523ZM487.947,409.393h8.074l-1.935-13.751h-4.163l-1.977,13.751Z" fill="#b4bf1d" stroke-width="0"/><path d="M521.678,414.86c1.608,0,2.431.968,2.431,2.86,0,1.977-.822,2.943-2.502,2.943h-2.968c-8.366,0-12.549-5.089-12.549-15.308v-5.593c0-6.645,2.753-9.967,8.188-9.967h7.222c1.752,0,2.609,1.01,2.609,2.943s-.857,2.902-2.609,2.902h-7.473c-2.002,0-3.038,1.178-3.038,3.532v6.182c0,6.351,2.538,9.504,7.65,9.504h3.039Z" fill="#b4bf1d" stroke-width="0"/><path d="M542.875,414.86c1.609,0,2.432.968,2.432,2.86,0,1.977-.822,2.943-2.503,2.943h-2.968c-8.365,0-12.548-5.089-12.548-15.308v-5.593c0-6.645,2.752-9.967,8.187-9.967h7.222c1.752,0,2.61,1.01,2.61,2.943s-.858,2.902-2.61,2.902h-7.472c-2.002,0-3.039,1.178-3.039,3.532v6.182c0,6.351,2.538,9.504,7.65,9.504h3.039Z" fill="#b4bf1d" stroke-width="0"/><path d="M555.238,401.698h10.682c1.935,0,2.943,1.009,2.943,2.943s-1.009,2.859-2.943,2.859h-10.682v2.397c0,3.28,1.851,4.962,5.593,4.962h6.267c1.893,0,2.859.968,2.859,2.86,0,1.977-.967,2.943-2.859,2.943h-5.846c-7.906,0-11.816-3.995-11.816-12.027v-17.704c0-.631.462-1.136,1.051-1.136h16.19c1.935,0,2.901,1.01,2.901,2.943s-.967,2.902-2.901,2.902h-11.438v6.056Z" fill="#b4bf1d" stroke-width="0"/><path d="M590.521,389.797c2.146,0,3.196,1.01,3.196,2.901,0,1.977-1.051,2.944-3.196,2.944h-8.705c-1.64,0-2.48.925-2.48,2.817,0,1.809.841,2.691,2.523,2.691h6.266c4.542,0,6.771,2.019,6.771,6.056,0,8.957-4.542,13.457-13.625,13.457h-4.079c-2.104,0-3.112-.925-3.112-2.817,0-1.977,1.009-2.986,3.112-2.986h4.583c4.837,0,7.275-2.187,7.275-6.56,0-.884-.42-1.346-1.262-1.346h-5.256c-6.014,0-9.084-2.902-9.084-8.663,0-5.636,3.07-8.495,9.084-8.495h7.989Z" fill="#b4bf1d" stroke-width="0"/><path d="M615.67,389.797c2.146,0,3.196,1.01,3.196,2.901,0,1.977-1.051,2.944-3.196,2.944h-8.705c-1.64,0-2.48.925-2.48,2.817,0,1.809.841,2.691,2.523,2.691h6.266c4.542,0,6.771,2.019,6.771,6.056,0,8.957-4.542,13.457-13.625,13.457h-4.079c-2.104,0-3.112-.925-3.112-2.817,0-1.977,1.009-2.986,3.112-2.986h4.583c4.837,0,7.275-2.187,7.275-6.56,0-.884-.42-1.346-1.262-1.346h-5.256c-6.014,0-9.084-2.902-9.084-8.663,0-5.636,3.07-8.495,9.084-8.495h7.989Z" fill="#b4bf1d" stroke-width="0"/><path d="M630.264,392.74v24.98c0,1.977-1.009,2.943-2.901,2.943-1.977,0-2.943-.967-2.943-2.943v-24.98c0-1.934.967-2.943,2.943-2.943,1.893,0,2.901,1.01,2.901,2.943Z" fill="#b4bf1d" stroke-width="0"/><path d="M635.311,390.932c0-.631.462-1.136,1.051-1.136h12.784c4.289,0,6.435,2.145,6.435,6.435v2.354c0,2.229-.589,4.163-1.683,5.467,1.304,1.262,2.103,2.775,2.103,4.794,0,7.906-3.868,11.817-11.648,11.817h-7.99c-.589,0-1.051-.463-1.051-1.094v-28.638ZM641.113,401.824h6.266c1.683,0,2.271-1.136,2.271-3.238v-2.019c0-.589-.253-.925-.757-.925h-7.78v6.182ZM641.113,407.586v7.274h3.532c3.701,0,5.552-1.977,5.552-6.014,0-.841-.547-1.261-1.725-1.261h-7.359Z" fill="#b4bf1d" stroke-width="0"/><path d="M666.01,392.74v24.98c0,1.977-1.009,2.943-2.901,2.943-1.977,0-2.943-.967-2.943-2.943v-24.98c0-1.934.967-2.943,2.943-2.943,1.893,0,2.901,1.01,2.901,2.943Z" fill="#b4bf1d" stroke-width="0"/><path d="M676.859,392.74v22.12h11.691c1.935,0,2.901.968,2.901,2.86,0,1.977-.967,2.943-2.901,2.943h-14.635c-1.472,0-2.859-1.304-2.859-2.943v-24.98c0-1.934.925-2.943,2.859-2.943s2.943,1.01,2.943,2.943Z" fill="#b4bf1d" stroke-width="0"/><path d="M700.746,392.74v24.98c0,1.977-1.009,2.943-2.901,2.943-1.977,0-2.943-.967-2.943-2.943v-24.98c0-1.934.967-2.943,2.943-2.943,1.893,0,2.901,1.01,2.901,2.943Z" fill="#b4bf1d" stroke-width="0"/><path d="M723.203,389.797c1.892,0,2.901,1.01,2.901,2.943s-1.01,2.902-2.901,2.902h-5.089v22.12c0,1.977-.967,2.943-2.901,2.943-1.893,0-2.902-.967-2.902-2.943v-22.12h-4.962c-1.935,0-2.901-.968-2.901-2.902s.967-2.943,2.901-2.943h15.854Z" fill="#b4bf1d" stroke-width="0"/><path d="M750.034,392.698c0,.631-.126,1.052-.253,1.304l-7.653,16.106v7.612c0,1.977-.925,2.943-2.859,2.943s-2.944-.967-2.944-2.943v-7.696l-7.611-16.022c-.168-.336-.252-.757-.252-1.304,0-1.64,1.304-2.901,2.943-2.901,1.052,0,1.893.589,2.523,1.725l5.257,11.228,5.214-11.228c.463-1.136,1.388-1.725,2.691-1.725,1.599,0,2.944,1.262,2.944,2.901Z" fill="#b4bf1d" stroke-width="0"/><path d="M761.978,408.846c0-5.046,2.691-7.569,8.158-7.569h5.593v-5.635h-10.85c-1.935,0-2.901-.968-2.901-2.902s.967-2.943,2.901-2.943h13.751c1.641,0,2.944,1.514,2.944,2.943v11.439c0,1.64-1.304,2.901-2.944,2.901h-9.083c-1.178,0-1.767.673-1.767,1.935v5.845h10.935c1.977,0,2.943.968,2.943,2.86,0,1.977-.967,2.943-2.943,2.943h-13.836c-1.64,0-2.901-1.304-2.901-2.943v-8.874Z" fill="#6b6459" stroke-width="0"/><path d="M786.033,405.356c0-10.303,4.92-15.56,12.027-15.56,7.022,0,11.942,5.257,11.942,15.56,0,10.219-4.92,15.308-11.942,15.308-7.107,0-12.027-5.089-12.027-15.308ZM804.41,405.356c0-6.476-2.103-9.714-6.35-9.714s-6.393,3.238-6.393,9.714c0,6.351,2.145,9.504,6.393,9.504s6.35-3.153,6.35-9.504Z" fill="#6b6459" stroke-width="0"/><path d="M814.378,408.846c0-5.046,2.691-7.569,8.158-7.569h5.593v-5.635h-10.85c-1.935,0-2.901-.968-2.901-2.902s.967-2.943,2.901-2.943h13.751c1.641,0,2.944,1.514,2.944,2.943v11.439c0,1.64-1.304,2.901-2.944,2.901h-9.083c-1.178,0-1.767.673-1.767,1.935v5.845h10.935c1.977,0,2.943.968,2.943,2.86,0,1.977-.967,2.943-2.943,2.943h-13.836c-1.64,0-2.901-1.304-2.901-2.943v-8.874Z" fill="#6b6459" stroke-width="0"/><path d="M848.105,393.371l-3.532,16.443h6.434v-8.074c0-1.893.926-2.859,2.86-2.859s2.943.967,2.943,2.859v15.98c0,1.977-1.009,2.943-2.943,2.943s-2.86-.967-2.86-2.943v-2.061h-10.008c-1.935,0-2.902-.968-2.902-2.944,0-.967.042-1.851.211-2.649l4.079-17.872c.378-1.599,1.304-2.397,2.733-2.397,1.682,0,2.985.757,2.985,3.574Z" fill="#6b6459" stroke-width="0"/></g></svg>