<?xml version="1.0" encoding="UTF-8"?><svg id="a" xmlns="http://www.w3.org/2000/svg" width="431.719" height="77.157" viewBox="0 0 431.719 77.157"><path d="M28.575,38.611l-22.734,26.978c-.894.952-1.447,2.623-.948,3.822.522,1.253,1.711,2.023,3.052,2.023.756,0,1.379-.265,2.194-1.085l27.907-29.659c1.114-1.172,1.127-3.008.029-4.195" fill="#c4d930" stroke-width="0"/><path d="M28.575,38.611l21.655-26.572c1.036-1.381,1.525-2.104,1.036-3.279-.512-1.228-1.796-2.195-3.111-2.195h0c-.737,0-1.194.065-2.089.769l-26.822,28.999c-1.194,1.277-1.189,3.263.011,4.534l33.18,35.462c.71.728,1.423.828,2.179.828,1.342,0,2.213-.79,2.796-1.957.499-1.199-.053-2.387-.974-3.631l-27.861-32.958" fill="#7d756a" stroke-width="0"/><path d="M38.077,36.495L5.675,1.476S4.486.031,3.229,0,.728.709.217,1.936c-.49,1.175-.138,2,.936,3.539l27.422,33.136" fill="#c4d930" stroke-width="0"/><path d="M69.669,54.464l-.421-2.943h-9.714l-.378,2.943c-.252,1.683-1.219,2.523-2.859,2.523-1.935,0-2.944-.967-2.944-2.901l3.448-24.264v.042c.294-2.523,1.851-3.785,4.668-3.785h5.888c2.607,0,4.374,1.262,4.71,3.743l3.406,24.18c0,1.724-1.304,2.985-2.986,2.985s-2.607-.841-2.817-2.523ZM60.333,45.675h8.074l-1.935-13.75h-4.163l-1.977,13.75Z" fill="#b3bf35" stroke-width="0"/><path d="M94.063,51.142c1.609,0,2.431.968,2.431,2.86,0,1.977-.822,2.943-2.502,2.943h-2.968c-8.366,0-12.548-5.089-12.548-15.308v-5.592c0-6.645,2.752-9.967,8.187-9.967h7.222c1.752,0,2.61,1.01,2.61,2.943s-.858,2.902-2.61,2.902h-7.472c-2.002,0-3.039,1.178-3.039,3.532v6.181c0,6.351,2.538,9.504,7.65,9.504h3.039Z" fill="#b3bf35" stroke-width="0"/><path d="M115.26,51.142c1.609,0,2.431.968,2.431,2.86,0,1.977-.822,2.943-2.502,2.943h-2.968c-8.366,0-12.548-5.089-12.548-15.308v-5.592c0-6.645,2.752-9.967,8.187-9.967h7.222c1.752,0,2.61,1.01,2.61,2.943s-.858,2.902-2.61,2.902h-7.472c-2.002,0-3.039,1.178-3.039,3.532v6.181c0,6.351,2.538,9.504,7.65,9.504h3.039Z" fill="#b3bf35" stroke-width="0"/><path d="M127.624,37.981h10.681c1.935,0,2.944,1.008,2.944,2.943s-1.009,2.859-2.944,2.859h-10.681v2.397c0,3.28,1.85,4.962,5.593,4.962h6.266c1.893,0,2.859.968,2.859,2.86,0,1.977-.967,2.943-2.859,2.943h-5.845c-7.906,0-11.817-3.995-11.817-12.027v-17.704c0-.631.462-1.136,1.051-1.136h16.19c1.934,0,2.901,1.01,2.901,2.943s-.967,2.902-2.901,2.902h-11.438v6.056Z" fill="#b3bf35" stroke-width="0"/><path d="M162.907,26.079c2.145,0,3.196,1.01,3.196,2.901,0,1.977-1.051,2.944-3.196,2.944h-8.705c-1.64,0-2.481.925-2.481,2.817,0,1.809.841,2.691,2.523,2.691h6.266c4.542,0,6.771,2.018,6.771,6.055,0,8.957-4.542,13.457-13.625,13.457h-4.079c-2.103,0-3.112-.925-3.112-2.817,0-1.977,1.009-2.986,3.112-2.986h4.583c4.836,0,7.275-2.187,7.275-6.56,0-.884-.42-1.346-1.262-1.346h-5.256c-6.014,0-9.084-2.902-9.084-8.663,0-5.636,3.07-8.495,9.084-8.495h7.99Z" fill="#b3bf35" stroke-width="0"/><path d="M188.056,26.079c2.145,0,3.196,1.01,3.196,2.901,0,1.977-1.052,2.944-3.196,2.944h-8.706c-1.64,0-2.481.925-2.481,2.817,0,1.809.841,2.691,2.523,2.691h6.266c4.542,0,6.771,2.018,6.771,6.055,0,8.957-4.541,13.457-13.625,13.457h-4.079c-2.103,0-3.112-.925-3.112-2.817,0-1.977,1.009-2.986,3.112-2.986h4.583c4.836,0,7.275-2.187,7.275-6.56,0-.884-.42-1.346-1.262-1.346h-5.256c-6.014,0-9.084-2.902-9.084-8.663,0-5.636,3.07-8.495,9.084-8.495h7.99Z" fill="#b3bf35" stroke-width="0"/><path d="M202.65,29.023v24.98c0,1.977-1.01,2.943-2.902,2.943-1.977,0-2.943-.967-2.943-2.943v-24.98c0-1.934.967-2.943,2.943-2.943,1.893,0,2.902,1.01,2.902,2.943Z" fill="#b3bf35" stroke-width="0"/><path d="M207.696,27.215c0-.631.463-1.136,1.052-1.136h12.784c4.289,0,6.434,2.145,6.434,6.435v2.354c0,2.229-.589,4.163-1.682,5.466,1.304,1.262,2.103,2.775,2.103,4.794,0,7.906-3.869,11.817-11.649,11.817h-7.989c-.589,0-1.052-.463-1.052-1.094v-28.637ZM213.499,38.107h6.266c1.682,0,2.271-1.136,2.271-3.238v-2.019c0-.589-.252-.925-.757-.925h-7.779v6.182ZM213.499,43.868v7.274h3.532c3.7,0,5.551-1.977,5.551-6.014,0-.841-.547-1.261-1.724-1.261h-7.359Z" fill="#b3bf35" stroke-width="0"/><path d="M238.395,29.023v24.98c0,1.977-1.009,2.943-2.901,2.943-1.977,0-2.943-.967-2.943-2.943v-24.98c0-1.934.967-2.943,2.943-2.943,1.893,0,2.901,1.01,2.901,2.943Z" fill="#b3bf35" stroke-width="0"/><path d="M249.244,29.023v22.12h11.691c1.935,0,2.901.968,2.901,2.86,0,1.977-.967,2.943-2.901,2.943h-14.635c-1.472,0-2.859-1.304-2.859-2.943v-24.98c0-1.934.925-2.943,2.859-2.943s2.943,1.01,2.943,2.943Z" fill="#b3bf35" stroke-width="0"/><path d="M273.131,29.023v24.98c0,1.977-1.009,2.943-2.901,2.943-1.977,0-2.943-.967-2.943-2.943v-24.98c0-1.934.967-2.943,2.943-2.943,1.893,0,2.901,1.01,2.901,2.943Z" fill="#b3bf35" stroke-width="0"/><path d="M295.588,26.079c1.892,0,2.901,1.01,2.901,2.943s-1.01,2.902-2.901,2.902h-5.089v22.12c0,1.977-.967,2.943-2.901,2.943-1.893,0-2.902-.967-2.902-2.943v-22.12h-4.962c-1.935,0-2.901-.968-2.901-2.902s.967-2.943,2.901-2.943h15.854Z" fill="#b3bf35" stroke-width="0"/><path d="M322.419,28.981c0,.631-.126,1.052-.253,1.304l-7.653,16.106v7.612c0,1.977-.925,2.943-2.859,2.943s-2.944-.967-2.944-2.943v-7.696l-7.611-16.022c-.168-.336-.252-.757-.252-1.304,0-1.64,1.304-2.901,2.943-2.901,1.052,0,1.893.589,2.523,1.725l5.257,11.227,5.214-11.227c.463-1.136,1.388-1.725,2.691-1.725,1.599,0,2.944,1.262,2.944,2.901Z" fill="#b3bf35" stroke-width="0"/><path d="M334.363,45.129c0-5.046,2.691-7.569,8.158-7.569h5.593v-5.635h-10.85c-1.935,0-2.901-.968-2.901-2.902s.967-2.943,2.901-2.943h13.751c1.641,0,2.944,1.514,2.944,2.943v11.439c0,1.64-1.304,2.901-2.944,2.901h-9.083c-1.178,0-1.767.673-1.767,1.935v5.845h10.935c1.977,0,2.943.968,2.943,2.86,0,1.977-.967,2.943-2.943,2.943h-13.836c-1.64,0-2.901-1.304-2.901-2.943v-8.874Z" fill="#6b6459" stroke-width="0"/><path d="M358.418,41.638c0-10.302,4.92-15.559,12.027-15.559,7.022,0,11.942,5.257,11.942,15.559,0,10.219-4.92,15.308-11.942,15.308-7.107,0-12.027-5.089-12.027-15.308ZM376.795,41.638c0-6.475-2.103-9.713-6.35-9.713s-6.393,3.238-6.393,9.713c0,6.351,2.145,9.504,6.393,9.504s6.35-3.153,6.35-9.504Z" fill="#6b6459" stroke-width="0"/><path d="M386.763,45.129c0-5.046,2.691-7.569,8.158-7.569h5.593v-5.635h-10.85c-1.935,0-2.901-.968-2.901-2.902s.967-2.943,2.901-2.943h13.751c1.641,0,2.944,1.514,2.944,2.943v11.439c0,1.64-1.304,2.901-2.944,2.901h-9.083c-1.178,0-1.767.673-1.767,1.935v5.845h10.935c1.977,0,2.943.968,2.943,2.86,0,1.977-.967,2.943-2.943,2.943h-13.836c-1.64,0-2.901-1.304-2.901-2.943v-8.874Z" fill="#6b6459" stroke-width="0"/><path d="M420.49,29.653l-3.532,16.443h6.434v-8.074c0-1.893.926-2.859,2.86-2.859s2.943.967,2.943,2.859v15.98c0,1.977-1.009,2.943-2.943,2.943s-2.86-.967-2.86-2.943v-2.061h-10.008c-1.935,0-2.902-.968-2.902-2.944,0-.967.042-1.851.211-2.649l4.079-17.872c.378-1.599,1.304-2.397,2.733-2.397,1.682,0,2.985.757,2.985,3.574Z" fill="#6b6459" stroke-width="0"/></svg>