<?xml version="1.0" encoding="UTF-8"?><svg id="a" xmlns="http://www.w3.org/2000/svg" width="272.117" height="89.062" viewBox="0 0 272.117 89.062"><path d="M18.764,36.01l-.445-3.12h-10.296l-.401,3.12c-.268,1.783-1.292,2.674-3.031,2.674-2.05,0-3.12-1.025-3.12-3.075l3.655-25.717v.044c.312-2.674,1.961-4.011,4.948-4.011h6.24c2.763,0,4.635,1.337,4.992,3.967l3.61,25.628c0,1.828-1.381,3.165-3.165,3.165s-2.763-.891-2.986-2.674ZM8.87,26.695h8.558l-2.05-14.575h-4.413l-2.095,14.575Z" fill="#b3bf35" stroke-width="0"/><path d="M42.876,32.489c1.705,0,2.576,1.025,2.576,3.031,0,2.095-.871,3.12-2.652,3.12h-3.145c-8.866,0-13.299-5.393-13.299-16.224v-5.928c0-7.042,2.917-10.563,8.676-10.563h7.653c1.856,0,2.766,1.069,2.766,3.12s-.909,3.076-2.766,3.076h-7.918c-2.122,0-3.221,1.248-3.221,3.744v6.552c0,6.73,2.69,10.073,8.108,10.073h3.22Z" fill="#b3bf35" stroke-width="0"/><path d="M63.863,32.489c1.705,0,2.576,1.025,2.576,3.031,0,2.095-.871,3.12-2.652,3.12h-3.145c-8.866,0-13.299-5.393-13.299-16.224v-5.928c0-7.042,2.917-10.563,8.676-10.563h7.653c1.856,0,2.766,1.069,2.766,3.12s-.909,3.076-2.766,3.076h-7.918c-2.122,0-3.221,1.248-3.221,3.744v6.552c0,6.73,2.69,10.073,8.108,10.073h3.22Z" fill="#b3bf35" stroke-width="0"/><path d="M75.488,18.538h11.321c2.05,0,3.12,1.07,3.12,3.12s-1.07,3.031-3.12,3.031h-11.321v2.541c0,3.477,1.961,5.259,5.928,5.259h6.641c2.006,0,3.031,1.025,3.031,3.031,0,2.095-1.025,3.12-3.031,3.12h-6.195c-8.379,0-12.524-4.234-12.524-12.747V7.128c0-.668.49-1.203,1.114-1.203h17.16c2.05,0,3.076,1.069,3.076,3.12s-1.025,3.076-3.076,3.076h-12.123v6.418Z" fill="#b3bf35" stroke-width="0"/><path d="M111.143,5.925c2.273,0,3.387,1.069,3.387,3.075,0,2.095-1.114,3.12-3.387,3.12h-9.227c-1.738,0-2.629.98-2.629,2.986,0,1.917.891,2.853,2.674,2.853h6.641c4.813,0,7.176,2.139,7.176,6.418,0,9.494-4.814,14.263-14.441,14.263h-4.324c-2.229,0-3.298-.98-3.298-2.986,0-2.095,1.069-3.165,3.298-3.165h4.858c5.125,0,7.711-2.317,7.711-6.953,0-.936-.446-1.426-1.337-1.426h-5.571c-6.374,0-9.627-3.075-9.627-9.182,0-5.972,3.254-9.003,9.627-9.003h8.469Z" fill="#b3bf35" stroke-width="0"/><path d="M136.635,5.925c2.273,0,3.387,1.069,3.387,3.075,0,2.095-1.114,3.12-3.387,3.12h-9.227c-1.738,0-2.629.98-2.629,2.986,0,1.917.891,2.853,2.674,2.853h6.641c4.813,0,7.176,2.139,7.176,6.418,0,9.494-4.814,14.263-14.441,14.263h-4.324c-2.229,0-3.298-.98-3.298-2.986,0-2.095,1.069-3.165,3.298-3.165h4.858c5.125,0,7.711-2.317,7.711-6.953,0-.936-.446-1.426-1.337-1.426h-5.571c-6.374,0-9.627-3.075-9.627-9.182,0-5.972,3.254-9.003,9.627-9.003h8.469Z" fill="#b3bf35" stroke-width="0"/><path d="M150.94,9.044v26.475c0,2.095-1.069,3.12-3.075,3.12-2.095,0-3.12-1.025-3.12-3.12V9.044c0-2.05,1.025-3.12,3.12-3.12,2.005,0,3.075,1.069,3.075,3.12Z" fill="#b3bf35" stroke-width="0"/><path d="M155.128,7.128c0-.668.49-1.203,1.114-1.203h13.55c4.547,0,6.819,2.273,6.819,6.819v2.496c0,2.362-.624,4.413-1.782,5.794,1.381,1.337,2.229,2.941,2.229,5.081,0,8.379-4.101,12.524-12.347,12.524h-8.469c-.624,0-1.114-.49-1.114-1.159V7.128ZM161.28,18.672h6.641c1.783,0,2.407-1.204,2.407-3.432v-2.139c0-.624-.268-.98-.803-.98h-8.245v6.552ZM161.28,24.778v7.71h3.744c3.922,0,5.883-2.095,5.883-6.374,0-.892-.579-1.337-1.827-1.337h-7.8Z" fill="#b3bf35" stroke-width="0"/><path d="M186.504,9.044v26.475c0,2.095-1.069,3.12-3.075,3.12-2.095,0-3.12-1.025-3.12-3.12V9.044c0-2.05,1.025-3.12,3.12-3.12,2.006,0,3.075,1.069,3.075,3.12Z" fill="#b3bf35" stroke-width="0"/><path d="M196.844,9.044v23.444h12.391c2.05,0,3.075,1.025,3.075,3.031,0,2.095-1.025,3.12-3.075,3.12h-15.511c-1.56,0-3.031-1.382-3.031-3.12V9.044c0-2.05.981-3.12,3.031-3.12s3.12,1.069,3.12,3.12Z" fill="#b3bf35" stroke-width="0"/><path d="M220.999,9.044v26.475c0,2.095-1.069,3.12-3.075,3.12-2.095,0-3.12-1.025-3.12-3.12V9.044c0-2.05,1.025-3.12,3.12-3.12,2.006,0,3.075,1.069,3.075,3.12Z" fill="#b3bf35" stroke-width="0"/><path d="M243.64,5.925c2.005,0,3.075,1.069,3.075,3.12s-1.07,3.076-3.075,3.076h-5.394v23.444c0,2.095-1.025,3.12-3.075,3.12-2.006,0-3.075-1.025-3.075-3.12V12.12h-5.26c-2.05,0-3.075-1.025-3.075-3.076s1.025-3.12,3.075-3.12h16.804Z" fill="#b3bf35" stroke-width="0"/><path d="M270.916,9c0,.668-.134,1.114-.268,1.382l-8.112,17.07v8.067c0,2.095-.98,3.12-3.03,3.12s-3.12-1.025-3.12-3.12v-8.156l-8.067-16.981c-.179-.357-.268-.802-.268-1.382,0-1.738,1.382-3.075,3.12-3.075,1.114,0,2.006.624,2.674,1.827l5.571,11.9,5.527-11.9c.49-1.203,1.471-1.827,2.853-1.827,1.693,0,3.12,1.337,3.12,3.075Z" fill="#b3bf35" stroke-width="0"/><path d="M8.825,59.868h7.71c2.006,0,3.076,1.069,3.076,3.12s-1.07,3.03-3.076,3.03h-7.71v10.831c0,2.095-1.07,3.12-3.12,3.12s-3.031-1.025-3.031-3.12v-28.392c0-.668.49-1.203,1.114-1.203h17.784c2.006,0,3.076,1.069,3.076,3.12s-1.07,3.075-3.076,3.075h-12.747v6.418Z" fill="#b3bf35" stroke-width="0"/><path d="M42.386,47.255c5.705,0,8.513,2.896,8.513,8.558v16.001c0,5.438-2.808,8.156-8.513,8.156h-6.864c-5.705,0-8.513-2.719-8.513-8.156v-16.001c0-5.661,2.808-8.558,8.513-8.558h6.864ZM42.832,73.819c1.292,0,1.917-.535,1.917-1.561v-16.893c0-1.292-.624-1.916-1.917-1.916h-7.755c-1.292,0-1.917.624-1.917,1.916v16.893c0,1.025.624,1.561,1.917,1.561h7.755Z" fill="#b3bf35" stroke-width="0"/><path d="M63.064,76.672c0,2.229-1.07,3.298-3.12,3.298s-3.031-1.069-3.031-3.298v-28.214c0-.668.49-1.203,1.114-1.203h13.817c4.68,0,6.998,2.317,6.998,6.953v2.05c0,4.413-2.095,7.89-5.883,9.404l4.234,10.118c.134.49.268.892.268,1.114,0,1.782-1.516,3.12-3.12,3.12-1.337,0-2.273-.758-2.853-1.872l-4.725-11.232h-3.699v9.762ZM63.064,60.76h5.393c2.719,0,4.101-1.471,4.101-4.502v-1.827c0-.624-.312-.98-.847-.98h-8.646v7.31Z" fill="#b3bf35" stroke-width="0"/><path d="M90.696,50.375v22.374c0,.758.268,1.07.936,1.07h8.379c.668,0,1.025-.312,1.025-1.07v-22.374c0-2.051,1.025-3.12,3.12-3.12,2.006,0,3.031,1.069,3.031,3.12v23.043c0,4.368-2.05,6.552-6.195,6.552h-10.028c-4.279,0-6.463-2.184-6.463-6.552v-23.043c0-2.051,1.025-3.12,3.075-3.12s3.12,1.069,3.12,3.12Z" fill="#b3bf35" stroke-width="0"/><path d="M142.352,50.642v26.208c0,2.095-1.07,3.12-3.12,3.12s-3.075-1.025-3.075-3.12v-17.917l-5.215,7.131c-.802,1.159-1.516,1.693-2.853,1.693-1.114,0-2.006-.579-2.719-1.56l-6.017-7.889v18.541c0,2.095-1.07,3.12-3.076,3.12-2.05,0-3.075-1.025-3.075-3.12v-26.208c0-2.228.891-3.387,2.629-3.387,1.07,0,2.14.535,2.986,1.693l9.182,11.544,8.513-11.41c.936-1.203,1.961-1.827,3.12-1.827,1.827,0,2.719,1.159,2.719,3.387Z" fill="#b3bf35" stroke-width="0"/><path d="M166.37,67.445c0-5.349,2.853-8.022,8.647-8.022h5.928v-5.973h-11.499c-2.051,0-3.076-1.025-3.076-3.075s1.025-3.12,3.076-3.12h14.574c1.738,0,3.12,1.604,3.12,3.12v12.123c0,1.738-1.382,3.075-3.12,3.075h-9.627c-1.248,0-1.872.713-1.872,2.051v6.195h11.588c2.096,0,3.12,1.024,3.12,3.03,0,2.095-1.024,3.12-3.12,3.12h-14.663c-1.738,0-3.076-1.382-3.076-3.12v-9.404Z" fill="#6b6459" stroke-width="0"/><path d="M192.532,63.746c0-10.92,5.215-16.491,12.747-16.491,7.443,0,12.658,5.571,12.658,16.491,0,10.83-5.215,16.224-12.658,16.224-7.532,0-12.747-5.394-12.747-16.224ZM212.009,63.746c0-6.864-2.229-10.296-6.73-10.296s-6.774,3.432-6.774,10.296c0,6.73,2.273,10.073,6.774,10.073s6.73-3.343,6.73-10.073Z" fill="#6b6459" stroke-width="0"/><path d="M223.238,67.445c0-5.349,2.853-8.022,8.647-8.022h5.928v-5.973h-11.499c-2.051,0-3.076-1.025-3.076-3.075s1.025-3.12,3.076-3.12h14.574c1.738,0,3.12,1.604,3.12,3.12v12.123c0,1.738-1.382,3.075-3.12,3.075h-9.627c-1.248,0-1.872.713-1.872,2.051v6.195h11.588c2.096,0,3.12,1.024,3.12,3.03,0,2.095-1.024,3.12-3.12,3.12h-14.663c-1.738,0-3.076-1.382-3.076-3.12v-9.404Z" fill="#6b6459" stroke-width="0"/><path d="M259.652,51.043l-3.744,17.428h6.819v-8.558c0-2.006.98-3.031,3.03-3.031s3.12,1.025,3.12,3.031v16.937c0,2.095-1.069,3.12-3.12,3.12s-3.03-1.025-3.03-3.12v-2.184h-10.608c-2.05,0-3.075-1.025-3.075-3.12,0-1.025.045-1.961.223-2.808l4.323-18.943c.401-1.693,1.382-2.54,2.897-2.54,1.783,0,3.165.802,3.165,3.788Z" fill="#6b6459" stroke-width="0"/></svg>