<!-- Created with Inkscape (http://www.inkscape.org/) -->
<svg width="362.2" height="143.94" version="1.1" viewBox="0 0 362.2 143.94" xmlns="http://www.w3.org/2000/svg" xmlns:xlink="http://www.w3.org/1999/xlink">
 <g transform="matrix(1.3333 0 0 -1.3333 -1093.4 856.78)">
  <g>
   <g fill="#0f4d81">
    <path transform="translate(837.77 547.73)" d="m0 0c-1.15-0.081-1.635-0.455-1.715-1.22-0.101-0.621-0.161-1.428-0.161-3.042v-2.047c0-2.298-0.343-4.055-1.493-5.297-0.929-0.973-2.28-1.47-3.692-1.47-1.272 0-2.502 0.289-3.431 1.034-1.172 0.933-1.714 2.463-1.714 4.884v4.987c0 1.902-0.183 2.026-1.717 2.171v0.662h5.753v-0.662c-1.515-0.124-1.697-0.269-1.697-2.171v-4.573c0-3.187 1.151-5.028 3.471-5.028 2.583 0 3.57 2.09 3.57 5.545v1.965c0 1.614-0.079 2.443-0.181 3.063-0.1 0.744-0.565 1.097-1.955 1.199v0.662h4.962z"/>
    <path transform="translate(868.67 547.73)" d="m0 0c-1.09-0.061-1.533-0.33-1.635-1.262-0.081-0.641-0.16-1.594-0.16-3.455v-8.276h-0.848l-8.473 10.511h-0.042v-4.841c0-1.863 0.081-2.794 0.141-3.415 0.102-0.972 0.505-1.304 1.938-1.387v-0.662h-4.864v0.662c1.131 0.083 1.615 0.394 1.696 1.326 0.082 0.682 0.182 1.613 0.182 3.476v4.385c0 1.428-0.041 1.697-0.404 2.173-0.403 0.517-0.847 0.684-1.734 0.765v0.662h3.45l7.968-9.559h0.06v4.18c0 1.841-0.099 2.814-0.139 3.414-0.102 0.91-0.545 1.222-1.998 1.303v0.662h4.862z"/>
    <path transform="translate(885.96 534.94)" d="m0 0v0.662c1.553 0.146 1.736 0.27 1.736 2.027v8.071c0 1.758-0.183 1.882-1.736 2.027v0.662h5.792v-0.662c-1.554-0.145-1.716-0.269-1.716-2.027v-8.071c0-1.757 0.162-1.881 1.716-2.027v-0.662z"/>
    <path transform="translate(922.74 547.71)" d="m0 0c-1.332-0.145-1.654-0.373-2.462-2.318-0.605-1.511-2.562-6.412-4.115-10.676h-0.867c-1.373 3.788-3.168 8.587-4.137 11.05-0.606 1.571-0.929 1.819-2.159 1.944v0.682h5.63v-0.682c-1.454-0.186-1.474-0.393-1.172-1.303 0.565-1.593 2.1-5.711 3.068-8.235h0.06c1.071 2.855 2.179 5.833 2.764 7.738 0.424 1.343 0.383 1.594-1.271 1.8v0.682h4.661z"/>
    <path transform="translate(950.44 538.31)" d="m0 0c-0.122-0.848-0.525-2.751-0.706-3.373h-10.088v0.662c1.754 0.146 1.936 0.291 1.936 2.028v8.049c0 1.822-0.182 1.924-1.675 2.048v0.662h9.322c0.019-0.413 0.121-1.84 0.201-3.061l-0.686-0.105c-0.181 0.787-0.422 1.386-0.747 1.781-0.322 0.414-0.867 0.558-2.118 0.558h-1.189c-0.707 0-0.768-0.042-0.768-0.704v-4.53h1.554c1.775 0 1.977 0.124 2.24 1.571h0.665v-4.096h-0.665c-0.263 1.468-0.484 1.572-2.22 1.572h-1.574v-3.682c0-0.993 0.102-1.49 0.485-1.697 0.383-0.206 1.089-0.228 1.937-0.228 1.23 0 1.876 0.145 2.34 0.682 0.383 0.436 0.746 1.121 1.09 1.988z"/>
    <path transform="translate(979.85 534.76)" d="m0 0c-0.162 0-0.384 0.02-0.625 0.02-2.179 0.104-2.968 0.641-3.834 1.965-0.585 0.912-1.193 2.09-1.777 3.145-0.341 0.601-0.684 0.87-1.493 0.87h-0.464v-3.125c0-1.717 0.18-1.882 1.736-2.027v-0.663h-5.792v0.663c1.556 0.145 1.757 0.31 1.757 2.027v8.09c0 1.698-0.181 1.862-1.675 2.006v0.663h5.408c1.675 0 2.683-0.186 3.468-0.743 0.81-0.561 1.354-1.471 1.354-2.753 0-1.8-1.128-2.835-2.542-3.434 0.322-0.642 1.107-2.008 1.715-2.959 0.705-1.118 1.128-1.74 1.571-2.215 0.467-0.518 0.85-0.765 1.313-0.91zm-7.508 6.764c0.91 0 1.575 0.146 2.059 0.559 0.708 0.601 1.01 1.428 1.01 2.504 0 2.234-1.312 3.042-2.582 3.042-0.547 0-0.849-0.083-0.992-0.206-0.139-0.125-0.18-0.353-0.18-0.829v-5.07z"/>
    <path transform="translate(1004.1 545.12)" d="m0 0c-0.386 1.303-1.071 2.794-2.746 2.794-1.29 0-2.078-0.953-2.078-2.112 0-1.283 0.829-1.964 2.544-2.855 1.914-0.972 3.53-2.07 3.53-4.22 0-2.297-1.898-4.098-4.762-4.098-0.765 0-1.454 0.125-1.996 0.289-0.544 0.188-0.907 0.333-1.153 0.457-0.182 0.497-0.443 2.234-0.585 3.392l0.69 0.208c0.362-1.303 1.449-3.538 3.428-3.538 1.352 0 2.179 0.91 2.179 2.295 0 1.326-0.967 2.091-2.482 2.918-1.797 0.932-3.452 2.028-3.452 4.138 0 2.173 1.676 3.91 4.463 3.91 1.148 0 2.195-0.331 2.702-0.515 0.082-0.748 0.203-1.615 0.383-2.919z"/>
    <path transform="translate(1022.6 534.94)" d="m0 0v0.662c1.551 0.146 1.737 0.27 1.737 2.027v8.071c0 1.758-0.186 1.882-1.737 2.027v0.662h5.792v-0.662c-1.553-0.145-1.714-0.269-1.714-2.027v-8.071c0-1.757 0.161-1.881 1.714-2.027v-0.662z"/>
    <path transform="translate(1056.9 544.98)" d="m0 0c-0.242 1.034-0.484 1.676-0.805 2.028-0.343 0.414-0.787 0.558-2.099 0.558h-1.088v-9.952c0-1.697 0.182-1.862 2.014-2.007v-0.663h-6.294v0.663c1.755 0.145 1.941 0.29 1.941 2.007v9.952h-0.891c-1.675 0-2.058-0.208-2.34-0.6-0.302-0.353-0.523-1.013-0.766-2.007h-0.687c0.081 1.428 0.201 2.876 0.241 3.952h0.467c0.302-0.476 0.564-0.518 1.127-0.518h8.073c0.522 0 0.765 0.125 1.107 0.518h0.467c0-0.89 0.101-2.608 0.202-3.891z"/>
    <path transform="translate(1087.6 547.73)" d="m0 0c-1.313-0.145-1.656-0.476-2.421-1.697-0.806-1.324-1.392-2.338-2.38-4.241-0.282-0.538-0.343-0.786-0.343-1.365v-2.731c0-1.82 0.161-1.945 1.978-2.091v-0.662h-6.234v0.662c1.731 0.126 1.915 0.271 1.915 2.091v2.463c0 0.495-0.083 0.683-0.326 1.179-0.603 1.179-1.329 2.544-2.5 4.634-0.766 1.385-1.067 1.613-2.219 1.758v0.662h5.43v-0.662c-1.375-0.186-1.333-0.433-0.973-1.158 0.746-1.531 1.636-3.125 2.463-4.655 0.627 1.241 1.675 3.227 2.198 4.49 0.362 0.909 0.327 1.137-1.187 1.323v0.662h4.599z"/>
    <path transform="translate(851.88 575.32)" d="m0 0c-2.414-0.48-2.703-0.674-2.703-3.908v-3.86c0-1.735 0.049-3.278 0.289-4.535-2.895-0.676-7.091-1.736-11-1.736-11.195 0-18.386 6.37-18.386 16.07 0 12.864 8.93 17.948 19.109 17.948 3.959 0 8.33-1.056 10.066-1.442l0.054-10.931-1.77-8e-3c-1.16 5.407-4.779 9.148-9.315 9.148-5.789 0-10.809-5.213-10.809-13.895 0-7.291 3.572-14.912 11.487-14.912 0.961 0 2.071 0.145 2.699 0.579 0.725 0.436 1.111 1.205 1.111 2.701v4.587c0 3.374-0.241 3.766-5.307 4.194v1.691h14.475z"/>
    <path transform="translate(870.12 562)" d="m0 0v1.69c2.849 0.435 3.091 1.013 2.319 3.137-0.486 1.445-1.206 3.522-1.934 5.453h-9.261c-0.53-1.499-1.16-3.233-1.738-5.166-0.724-2.315-0.579-2.989 2.946-3.424v-1.69h-10.812v1.69c3.185 0.385 3.815 0.913 5.406 4.97l9.892 24.801 2.46 0.626c3.088-8.443 6.077-16.84 9.217-25.14 1.64-4.244 2.221-4.872 5.307-5.257v-1.69zm-4.1 23.308h-0.146c-1.35-3.524-2.557-7.048-3.814-10.472h7.532z"/>
    <path transform="translate(911.14 570.16)" d="m0 0c-0.388-2.078-1.4-6.852-1.787-8.158h-23.498v1.691c4.196 0.336 4.679 0.625 4.679 4.727v18.484c0 4.147-0.483 4.438-4.15 4.774v1.691h14.72v-1.691c-3.67-0.336-4.106-0.627-4.106-4.774v-18.869c0-2.269 0.198-3.089 1.159-3.523 0.869-0.337 2.126-0.434 3.619-0.434 2.075 0 3.814 0.336 4.971 1.639 0.868 0.967 1.785 2.511 2.653 4.973z"/>
    <path transform="translate(936.53 570.16)" d="m0 0c-0.384-2.078-1.4-6.852-1.786-8.158h-23.496v1.691c4.195 0.336 4.678 0.625 4.678 4.727v18.484c0 4.147-0.483 4.438-4.149 4.774v1.691h14.719v-1.691c-3.669-0.336-4.105-0.627-4.105-4.774v-18.869c0-2.269 0.195-3.089 1.161-3.523 0.87-0.337 2.123-0.434 3.617-0.434 2.074 0 3.815 0.336 4.97 1.639 0.87 0.967 1.784 2.511 2.653 4.973z"/>
    <path transform="translate(954.6 562)" d="m0 0v1.69c2.847 0.435 3.089 1.013 2.317 3.137-0.485 1.445-1.21 3.522-1.932 5.453h-9.264c-0.532-1.499-1.157-3.233-1.74-5.166-0.72-2.315-0.579-2.989 2.947-3.424v-1.69h-10.809v1.69c3.183 0.385 3.812 0.913 5.404 4.97l9.892 24.801 2.459 0.626c3.087-8.443 6.08-16.84 9.22-25.14 1.641-4.244 2.221-4.872 5.306-5.257v-1.69zm-4.102 23.308h-0.148c-1.348-3.524-2.555-7.048-3.808-10.472h7.526z"/>
    <path transform="translate(999.84 591.68)" d="m0 0c-2.606-0.145-3.81-1.157-4.052-2.845-0.241-1.498-0.436-3.283-0.436-6.708v-5.261c0-5.114-0.768-9.17-3.47-12.062-2.22-2.317-5.502-3.522-8.929-3.522-3.184 0-6.219 0.673-8.54 2.459-2.701 2.173-4.006 5.743-4.006 11.39v11.385c0 4.537-0.479 4.828-4.053 5.164v1.691h14.524v-1.691c-3.521-0.336-4.004-0.627-4.004-5.164v-10.517c0-7.24 2.601-11.434 7.818-11.434 5.738 0 8.252 4.343 8.252 12.396v5.166c0 3.425-0.24 5.258-0.488 6.708-0.285 1.688-1.397 2.653-4.678 2.845v1.691h12.062z"/>
    <path transform="translate(1017 593.37)" d="m0 0c6.081 0 10.766-1.206 13.851-4.151 2.412-2.267 4.297-5.693 4.297-10.278 0-5.891-2.368-10.133-6.034-12.931-3.572-2.701-8.638-4.007-14.619-4.007h-12.406v1.691c3.815 0.336 4.298 0.625 4.298 4.776v18.434c0 4.148-0.483 4.439-3.858 4.775v1.691zm-4.145-24.612c0-3.473 0.722-4.68 4.096-4.68 6.468 0 10.911 5.259 10.911 13.899 0 4.582-1.402 8.249-3.621 10.422-1.977 2.025-4.535 2.99-7.866 2.99-1.74 0-2.702-0.337-3.036-0.672-0.391-0.435-0.484-1.258-0.484-2.657z"/>
    <path transform="translate(1063 570.01)" d="m0 0c-0.334-2.168-1.301-6.561-1.687-8.008h-24.609v1.69c4.103 0.337 4.588 0.626 4.588 4.728v18.53c0 4.198-0.485 4.437-3.911 4.728v1.691h22.724c0.052-0.871 0.29-4.25 0.481-7.241l-1.783-0.24c-0.434 1.688-1.06 3.28-1.929 4.15-0.821 0.87-2.126 1.205-4.822 1.205h-2.318c-1.785 0-1.978-0.095-1.978-1.689v-10.229h3.234c4.052 0 4.729 0.244 5.352 3.617h1.735v-9.696h-1.735c-0.623 3.474-1.253 3.669-5.352 3.669h-3.234v-8.402c0-2.311 0.193-3.471 1.159-3.951 0.867-0.388 2.506-0.485 4.343-0.485 2.505 0 4.191 0.336 5.304 1.545 0.963 1.061 1.833 2.605 2.702 4.73z"/>
    <path transform="translate(1090 585.12)" d="m0 0c-0.576 2.509-1.253 4.152-2.119 5.016-0.87 0.87-2.073 1.112-4.921 1.112h-2.175v-22.824c0-4.102 0.483-4.391 4.727-4.727v-1.691h-15.731v1.691c4.056 0.336 4.535 0.625 4.535 4.727v22.824h-1.635c-4.004 0-4.873-0.483-5.554-1.303-0.817-0.822-1.398-2.46-2.026-4.872h-1.783c0.196 3.521 0.486 7.043 0.578 9.505h1.205c0.725-1.062 1.353-1.205 2.755-1.205h19.401c1.252 0 1.921 0.29 2.743 1.205h1.205c0.052-2.026 0.293-6.276 0.534-9.364z"/>
   </g>
   <path transform="translate(1075.2 605.17)" d="m0 0c-8e-3 7e-3 -0.012 0.012-0.024 0.02-22.208 17.497-81.04 37.391-128.79 37.391-51.191 0-95.397-13.543-116.13-33.15 29.405 14.717 70.565 23.863 116.13 23.863 22.953 0 44.787-2.324 64.566-6.509-9.323 1.158-19.139 1.778-29.272 1.778-43.951 0-81.907-11.629-99.704-28.463 25.247 12.636 60.587 20.488 99.704 20.488 39.116 0 74.458-7.852 99.703-20.488-1.849 1.748-3.919 3.44-6.186 5.07" fill="#efca77"/>
  </g>
 </g>
</svg>
